<svg width="320" height="250" viewBox="0 0 320 250" fill="none" xmlns="http://www.w3.org/2000/svg">
<rect x="0.5" y="0.5" width="319" height="249" rx="23.5" fill="#F1F5F9"/>
<rect x="0.5" y="0.5" width="319" height="249" rx="23.5" stroke="#E0E0E0"/>
<path d="M80.8 24.5H295.5V74C295.5 82.5603 288.561 89.4999 280 89.5H80.8C72.2396 89.5 65.3 82.5604 65.3 74V40C65.3 31.4396 72.2396 24.5 80.8 24.5Z" fill="white"/>
<path d="M80.8 24.5H295.5V74C295.5 82.5603 288.561 89.4999 280 89.5H80.8C72.2396 89.5 65.3 82.5604 65.3 74V40C65.3 31.4396 72.2396 24.5 80.8 24.5Z" stroke="#F1F5F9"/>
<g filter="url(#filter0_dd_95_467)">
<rect x="64.8" y="24" width="231.2" height="66" fill="white" fill-opacity="0.01" shape-rendering="crispEdges"/>
</g>
<path d="M84.824 52L82.164 42.2H83.662L85.65 50.362L87.932 42.2H89.486L91.698 50.39L93.714 42.2H95.212L92.51 52H90.872L88.674 44.202L86.42 52H84.824ZM96.5333 52V41.92H97.9333V46.092C98.1666 45.6813 98.4886 45.3593 98.8993 45.126C99.3193 44.8927 99.7813 44.776 100.285 44.776C100.845 44.776 101.326 44.8927 101.727 45.126C102.129 45.35 102.437 45.6907 102.651 46.148C102.866 46.596 102.973 47.1607 102.973 47.842V52H101.587V47.982C101.587 47.3287 101.447 46.834 101.167 46.498C100.887 46.1527 100.472 45.98 99.9213 45.98C99.548 45.98 99.212 46.0687 98.9133 46.246C98.6146 46.4233 98.3766 46.6847 98.1993 47.03C98.022 47.366 97.9333 47.7767 97.9333 48.262V52H96.5333ZM105.357 55.08L107.079 51.216H106.673L103.887 44.944H105.399L107.611 50.068L109.837 44.944H111.307L106.827 55.08H105.357ZM116.223 52V44.944H117.623V52H116.223ZM116.937 43.614C116.666 43.614 116.442 43.53 116.265 43.362C116.097 43.194 116.013 42.9793 116.013 42.718C116.013 42.466 116.097 42.2607 116.265 42.102C116.442 41.934 116.666 41.85 116.937 41.85C117.198 41.85 117.418 41.934 117.595 42.102C117.772 42.2607 117.861 42.466 117.861 42.718C117.861 42.9793 117.772 43.194 117.595 43.362C117.418 43.53 117.198 43.614 116.937 43.614ZM122.355 52.168C121.758 52.168 121.235 52.07 120.787 51.874C120.339 51.678 119.984 51.4027 119.723 51.048C119.462 50.6933 119.303 50.278 119.247 49.802H120.675C120.722 50.026 120.81 50.2313 120.941 50.418C121.081 50.6047 121.268 50.754 121.501 50.866C121.744 50.978 122.028 51.034 122.355 51.034C122.663 51.034 122.915 50.992 123.111 50.908C123.316 50.8147 123.466 50.6933 123.559 50.544C123.652 50.3853 123.699 50.2173 123.699 50.04C123.699 49.7787 123.634 49.5827 123.503 49.452C123.382 49.312 123.195 49.2047 122.943 49.13C122.7 49.046 122.406 48.9713 122.061 48.906C121.734 48.85 121.417 48.7753 121.109 48.682C120.81 48.5793 120.54 48.4533 120.297 48.304C120.064 48.1547 119.877 47.968 119.737 47.744C119.597 47.5107 119.527 47.226 119.527 46.89C119.527 46.4887 119.634 46.1293 119.849 45.812C120.064 45.4853 120.367 45.2333 120.759 45.056C121.16 44.8693 121.632 44.776 122.173 44.776C122.957 44.776 123.587 44.9627 124.063 45.336C124.539 45.7093 124.819 46.2367 124.903 46.918H123.545C123.508 46.6007 123.368 46.358 123.125 46.19C122.882 46.0127 122.56 45.924 122.159 45.924C121.758 45.924 121.45 46.0033 121.235 46.162C121.02 46.3207 120.913 46.5307 120.913 46.792C120.913 46.96 120.974 47.1093 121.095 47.24C121.216 47.3707 121.394 47.4827 121.627 47.576C121.87 47.66 122.164 47.7393 122.509 47.814C123.004 47.9073 123.447 48.024 123.839 48.164C124.231 48.304 124.544 48.5093 124.777 48.78C125.01 49.0507 125.127 49.438 125.127 49.942C125.136 50.3807 125.024 50.768 124.791 51.104C124.567 51.44 124.245 51.7013 123.825 51.888C123.414 52.0747 122.924 52.168 122.355 52.168ZM130.358 52V44.944H131.618L131.716 45.938C131.94 45.574 132.238 45.2893 132.612 45.084C132.985 44.8787 133.405 44.776 133.872 44.776C134.226 44.776 134.548 44.8273 134.838 44.93C135.127 45.0233 135.384 45.168 135.608 45.364C135.832 45.56 136.014 45.8027 136.154 46.092C136.406 45.6813 136.742 45.3593 137.162 45.126C137.591 44.8927 138.044 44.776 138.52 44.776C139.089 44.776 139.579 44.8927 139.99 45.126C140.4 45.35 140.713 45.6907 140.928 46.148C141.142 46.596 141.25 47.156 141.25 47.828V52H139.864V47.968C139.864 47.3147 139.728 46.82 139.458 46.484C139.196 46.148 138.809 45.98 138.296 45.98C137.95 45.98 137.642 46.0687 137.372 46.246C137.101 46.4233 136.886 46.68 136.728 47.016C136.578 47.352 136.504 47.7627 136.504 48.248V52H135.104V47.968C135.104 47.3147 134.968 46.82 134.698 46.484C134.436 46.148 134.049 45.98 133.536 45.98C133.209 45.98 132.91 46.0687 132.64 46.246C132.369 46.4233 132.154 46.68 131.996 47.016C131.837 47.352 131.758 47.7627 131.758 48.248V52H130.358ZM143.652 55.08L145.374 51.216H144.968L142.182 44.944H143.694L145.906 50.068L148.132 44.944H149.602L145.122 55.08H143.652ZM154.42 55.08V44.944H155.68L155.82 46.036C155.969 45.8213 156.156 45.6207 156.38 45.434C156.604 45.238 156.87 45.0793 157.178 44.958C157.495 44.8367 157.864 44.776 158.284 44.776C158.956 44.776 159.544 44.9393 160.048 45.266C160.561 45.5927 160.958 46.036 161.238 46.596C161.527 47.1467 161.672 47.7767 161.672 48.486C161.672 49.1953 161.527 49.83 161.238 50.39C160.949 50.9407 160.547 51.3747 160.034 51.692C159.53 52.0093 158.942 52.168 158.27 52.168C157.719 52.168 157.234 52.0607 156.814 51.846C156.394 51.622 156.063 51.314 155.82 50.922V55.08H154.42ZM158.046 50.95C158.475 50.95 158.853 50.8473 159.18 50.642C159.516 50.4367 159.777 50.1473 159.964 49.774C160.16 49.4007 160.258 48.9667 160.258 48.472C160.258 47.9773 160.16 47.548 159.964 47.184C159.777 46.8107 159.516 46.5213 159.18 46.316C158.853 46.1013 158.475 45.994 158.046 45.994C157.607 45.994 157.22 46.1013 156.884 46.316C156.557 46.5213 156.301 46.8107 156.114 47.184C155.927 47.548 155.834 47.9773 155.834 48.472C155.834 48.9667 155.927 49.4007 156.114 49.774C156.301 50.1473 156.557 50.4367 156.884 50.642C157.22 50.8473 157.607 50.95 158.046 50.95ZM163.307 52V44.944H164.567L164.693 46.274C164.851 45.9567 165.057 45.6907 165.309 45.476C165.561 45.252 165.855 45.0793 166.191 44.958C166.536 44.8367 166.928 44.776 167.367 44.776V46.26H166.863C166.573 46.26 166.298 46.2973 166.037 46.372C165.775 46.4373 165.542 46.554 165.337 46.722C165.141 46.89 164.987 47.1187 164.875 47.408C164.763 47.6973 164.707 48.0567 164.707 48.486V52H163.307ZM171.667 52.168C171.005 52.168 170.407 52.014 169.875 51.706C169.353 51.398 168.937 50.9687 168.629 50.418C168.331 49.858 168.181 49.214 168.181 48.486C168.181 47.7393 168.335 47.0907 168.643 46.54C168.951 45.98 169.371 45.546 169.903 45.238C170.435 44.93 171.033 44.776 171.695 44.776C172.367 44.776 172.965 44.93 173.487 45.238C174.01 45.546 174.421 45.9753 174.719 46.526C175.027 47.0767 175.181 47.7253 175.181 48.472C175.181 49.2187 175.027 49.8673 174.719 50.418C174.421 50.9687 174.005 51.398 173.473 51.706C172.941 52.014 172.339 52.168 171.667 52.168ZM171.667 50.964C172.05 50.964 172.395 50.8707 172.703 50.684C173.021 50.4973 173.273 50.222 173.459 49.858C173.655 49.4847 173.753 49.0227 173.753 48.472C173.753 47.9213 173.66 47.464 173.473 47.1C173.287 46.7267 173.035 46.4467 172.717 46.26C172.409 46.0733 172.069 45.98 171.695 45.98C171.322 45.98 170.977 46.0733 170.659 46.26C170.342 46.4467 170.085 46.7267 169.889 47.1C169.703 47.464 169.609 47.9213 169.609 48.472C169.609 49.0227 169.703 49.4847 169.889 49.858C170.085 50.222 170.337 50.4973 170.645 50.684C170.963 50.8707 171.303 50.964 171.667 50.964ZM177.206 52V46.134H176.17V44.944H177.206V43.992C177.206 43.5067 177.286 43.11 177.444 42.802C177.612 42.494 177.855 42.27 178.172 42.13C178.49 41.99 178.872 41.92 179.32 41.92H180.048V43.11H179.544C179.208 43.11 178.966 43.18 178.816 43.32C178.676 43.4507 178.606 43.684 178.606 44.02V44.944H182.904V52H181.504V46.134H178.606V52H177.206ZM182.218 43.726C181.957 43.726 181.738 43.642 181.56 43.474C181.383 43.306 181.294 43.0913 181.294 42.83C181.294 42.578 181.383 42.3727 181.56 42.214C181.738 42.046 181.957 41.962 182.218 41.962C182.489 41.962 182.708 42.046 182.876 42.214C183.054 42.3727 183.142 42.578 183.142 42.83C183.142 43.0913 183.054 43.306 182.876 43.474C182.708 43.642 182.489 43.726 182.218 43.726ZM187.834 52C187.386 52 186.999 51.93 186.672 51.79C186.345 51.65 186.093 51.4167 185.916 51.09C185.739 50.7633 185.65 50.32 185.65 49.76V46.134H184.432V44.944H185.65L185.818 43.18H187.05V44.944H189.052V46.134H187.05V49.774C187.05 50.1753 187.134 50.4507 187.302 50.6C187.47 50.74 187.759 50.81 188.17 50.81H188.982V52H187.834ZM194.178 52V41.92H195.578V52H194.178ZM200.72 52.168C200.057 52.168 199.46 52.014 198.928 51.706C198.405 51.398 197.99 50.9687 197.682 50.418C197.383 49.858 197.234 49.214 197.234 48.486C197.234 47.7393 197.388 47.0907 197.696 46.54C198.004 45.98 198.424 45.546 198.956 45.238C199.488 44.93 200.085 44.776 200.748 44.776C201.42 44.776 202.017 44.93 202.54 45.238C203.063 45.546 203.473 45.9753 203.772 46.526C204.08 47.0767 204.234 47.7253 204.234 48.472C204.234 49.2187 204.08 49.8673 203.772 50.418C203.473 50.9687 203.058 51.398 202.526 51.706C201.994 52.014 201.392 52.168 200.72 52.168ZM200.72 50.964C201.103 50.964 201.448 50.8707 201.756 50.684C202.073 50.4973 202.325 50.222 202.512 49.858C202.708 49.4847 202.806 49.0227 202.806 48.472C202.806 47.9213 202.713 47.464 202.526 47.1C202.339 46.7267 202.087 46.4467 201.77 46.26C201.462 46.0733 201.121 45.98 200.748 45.98C200.375 45.98 200.029 46.0733 199.712 46.26C199.395 46.4467 199.138 46.7267 198.942 47.1C198.755 47.464 198.662 47.9213 198.662 48.472C198.662 49.0227 198.755 49.4847 198.942 49.858C199.138 50.222 199.39 50.4973 199.698 50.684C200.015 50.8707 200.356 50.964 200.72 50.964ZM207.063 52L204.991 44.944H206.377L207.917 50.824L207.651 50.81L209.359 44.944H210.927L212.635 50.81L212.369 50.824L213.895 44.944H215.309L213.237 52H211.795L210.003 45.882H210.283L208.491 52H207.063ZM219.518 52.168C218.846 52.168 218.249 52.014 217.726 51.706C217.204 51.398 216.793 50.9687 216.494 50.418C216.205 49.8673 216.06 49.228 216.06 48.5C216.06 47.7533 216.205 47.1047 216.494 46.554C216.793 45.994 217.204 45.56 217.726 45.252C218.249 44.9347 218.856 44.776 219.546 44.776C220.237 44.776 220.83 44.93 221.324 45.238C221.819 45.546 222.202 45.9567 222.472 46.47C222.743 46.974 222.878 47.534 222.878 48.15C222.878 48.2433 222.874 48.346 222.864 48.458C222.864 48.5607 222.86 48.6773 222.85 48.808H217.082V47.814H221.478C221.45 47.226 221.254 46.7687 220.89 46.442C220.526 46.106 220.074 45.938 219.532 45.938C219.15 45.938 218.8 46.0267 218.482 46.204C218.165 46.372 217.908 46.624 217.712 46.96C217.526 47.2867 217.432 47.702 217.432 48.206V48.598C217.432 49.1207 217.526 49.564 217.712 49.928C217.908 50.2827 218.165 50.5533 218.482 50.74C218.8 50.9173 219.145 51.006 219.518 51.006C219.966 51.006 220.335 50.908 220.624 50.712C220.914 50.516 221.128 50.25 221.268 49.914H222.668C222.547 50.3433 222.342 50.7307 222.052 51.076C221.763 51.412 221.404 51.678 220.974 51.874C220.554 52.07 220.069 52.168 219.518 52.168ZM224.434 52V44.944H225.694L225.82 46.274C225.978 45.9567 226.184 45.6907 226.436 45.476C226.688 45.252 226.982 45.0793 227.318 44.958C227.663 44.8367 228.055 44.776 228.494 44.776V46.26H227.99C227.7 46.26 227.425 46.2973 227.164 46.372C226.902 46.4373 226.669 46.554 226.464 46.722C226.268 46.89 226.114 47.1187 226.002 47.408C225.89 47.6973 225.834 48.0567 225.834 48.486V52H224.434ZM236.273 52C235.825 52 235.438 51.93 235.111 51.79C234.785 51.65 234.533 51.4167 234.355 51.09C234.178 50.7633 234.089 50.32 234.089 49.76V46.134H232.871V44.944H234.089L234.257 43.18H235.489V44.944H237.491V46.134H235.489V49.774C235.489 50.1753 235.573 50.4507 235.741 50.6C235.909 50.74 236.199 50.81 236.609 50.81H237.421V52H236.273ZM239.035 52V41.92H240.435V46.092C240.669 45.6813 240.991 45.3593 241.401 45.126C241.821 44.8927 242.283 44.776 242.787 44.776C243.347 44.776 243.828 44.8927 244.229 45.126C244.631 45.35 244.939 45.6907 245.153 46.148C245.368 46.596 245.475 47.1607 245.475 47.842V52H244.089V47.982C244.089 47.3287 243.949 46.834 243.669 46.498C243.389 46.1527 242.974 45.98 242.423 45.98C242.05 45.98 241.714 46.0687 241.415 46.246C241.117 46.4233 240.879 46.6847 240.701 47.03C240.524 47.366 240.435 47.7767 240.435 48.262V52H239.035ZM247.364 52V44.944H248.764V52H247.364ZM248.078 43.614C247.807 43.614 247.583 43.53 247.406 43.362C247.238 43.194 247.154 42.9793 247.154 42.718C247.154 42.466 247.238 42.2607 247.406 42.102C247.583 41.934 247.807 41.85 248.078 41.85C248.339 41.85 248.558 41.934 248.736 42.102C248.913 42.2607 249.002 42.466 249.002 42.718C249.002 42.9793 248.913 43.194 248.736 43.362C248.558 43.53 248.339 43.614 248.078 43.614ZM253.496 52.168C252.898 52.168 252.376 52.07 251.928 51.874C251.48 51.678 251.125 51.4027 250.864 51.048C250.602 50.6933 250.444 50.278 250.388 49.802H251.816C251.862 50.026 251.951 50.2313 252.082 50.418C252.222 50.6047 252.408 50.754 252.642 50.866C252.884 50.978 253.169 51.034 253.496 51.034C253.804 51.034 254.056 50.992 254.252 50.908C254.457 50.8147 254.606 50.6933 254.7 50.544C254.793 50.3853 254.84 50.2173 254.84 50.04C254.84 49.7787 254.774 49.5827 254.644 49.452C254.522 49.312 254.336 49.2047 254.084 49.13C253.841 49.046 253.547 48.9713 253.202 48.906C252.875 48.85 252.558 48.7753 252.25 48.682C251.951 48.5793 251.68 48.4533 251.438 48.304C251.204 48.1547 251.018 47.968 250.878 47.744C250.738 47.5107 250.668 47.226 250.668 46.89C250.668 46.4887 250.775 46.1293 250.99 45.812C251.204 45.4853 251.508 45.2333 251.9 45.056C252.301 44.8693 252.772 44.776 253.314 44.776C254.098 44.776 254.728 44.9627 255.204 45.336C255.68 45.7093 255.96 46.2367 256.044 46.918H254.686C254.648 46.6007 254.508 46.358 254.266 46.19C254.023 46.0127 253.701 45.924 253.3 45.924C252.898 45.924 252.59 46.0033 252.376 46.162C252.161 46.3207 252.054 46.5307 252.054 46.792C252.054 46.96 252.114 47.1093 252.236 47.24C252.357 47.3707 252.534 47.4827 252.768 47.576C253.01 47.66 253.304 47.7393 253.65 47.814C254.144 47.9073 254.588 48.024 254.98 48.164C255.372 48.304 255.684 48.5093 255.918 48.78C256.151 49.0507 256.268 49.438 256.268 49.942C256.277 50.3807 256.165 50.768 255.932 51.104C255.708 51.44 255.386 51.7013 254.966 51.888C254.555 52.0747 254.065 52.168 253.496 52.168ZM84.18 72L82.108 64.944H83.494L85.034 70.824L84.768 70.81L86.476 64.944H88.044L89.752 70.81L89.486 70.824L91.012 64.944H92.426L90.354 72H88.912L87.12 65.882H87.4L85.608 72H84.18ZM96.6355 72.168C95.9635 72.168 95.3661 72.014 94.8435 71.706C94.3208 71.398 93.9101 70.9687 93.6115 70.418C93.3221 69.8673 93.1775 69.228 93.1775 68.5C93.1775 67.7533 93.3221 67.1047 93.6115 66.554C93.9101 65.994 94.3208 65.56 94.8435 65.252C95.3661 64.9347 95.9728 64.776 96.6635 64.776C97.3541 64.776 97.9468 64.93 98.4415 65.238C98.9361 65.546 99.3188 65.9567 99.5895 66.47C99.8601 66.974 99.9955 67.534 99.9955 68.15C99.9955 68.2433 99.9908 68.346 99.9815 68.458C99.9815 68.5607 99.9768 68.6773 99.9675 68.808H94.1995V67.814H98.5955C98.5675 67.226 98.3715 66.7687 98.0075 66.442C97.6435 66.106 97.1908 65.938 96.6495 65.938C96.2668 65.938 95.9168 66.0267 95.5995 66.204C95.2821 66.372 95.0255 66.624 94.8295 66.96C94.6428 67.2867 94.5495 67.702 94.5495 68.206V68.598C94.5495 69.1207 94.6428 69.564 94.8295 69.928C95.0255 70.2827 95.2821 70.5533 95.5995 70.74C95.9168 70.9173 96.2621 71.006 96.6355 71.006C97.0835 71.006 97.4521 70.908 97.7415 70.712C98.0308 70.516 98.2455 70.25 98.3855 69.914H99.7855C99.6641 70.3433 99.4588 70.7307 99.1695 71.076C98.8801 71.412 98.5208 71.678 98.0915 71.874C97.6715 72.07 97.1861 72.168 96.6355 72.168ZM104.743 72.168C104.071 72.168 103.474 72.014 102.951 71.706C102.428 71.398 102.018 70.9687 101.719 70.418C101.43 69.8673 101.285 69.228 101.285 68.5C101.285 67.7533 101.43 67.1047 101.719 66.554C102.018 65.994 102.428 65.56 102.951 65.252C103.474 64.9347 104.08 64.776 104.771 64.776C105.462 64.776 106.054 64.93 106.549 65.238C107.044 65.546 107.426 65.9567 107.697 66.47C107.968 66.974 108.103 67.534 108.103 68.15C108.103 68.2433 108.098 68.346 108.089 68.458C108.089 68.5607 108.084 68.6773 108.075 68.808H102.307V67.814H106.703C106.675 67.226 106.479 66.7687 106.115 66.442C105.751 66.106 105.298 65.938 104.757 65.938C104.374 65.938 104.024 66.0267 103.707 66.204C103.39 66.372 103.133 66.624 102.937 66.96C102.75 67.2867 102.657 67.702 102.657 68.206V68.598C102.657 69.1207 102.75 69.564 102.937 69.928C103.133 70.2827 103.39 70.5533 103.707 70.74C104.024 70.9173 104.37 71.006 104.743 71.006C105.191 71.006 105.56 70.908 105.849 70.712C106.138 70.516 106.353 70.25 106.493 69.914H107.893C107.772 70.3433 107.566 70.7307 107.277 71.076C106.988 71.412 106.628 71.678 106.199 71.874C105.779 72.07 105.294 72.168 104.743 72.168ZM114.096 72L110.848 68.136L113.788 64.944H115.482L111.982 68.682V67.632L115.86 72H114.096ZM109.658 72V61.92H111.058V72H109.658ZM118.231 69.074L118.175 66.862H118.679C119.062 66.862 119.421 66.8387 119.757 66.792C120.102 66.7453 120.406 66.6567 120.667 66.526C120.928 66.386 121.134 66.19 121.283 65.938C121.442 65.6767 121.521 65.3407 121.521 64.93C121.521 64.566 121.446 64.258 121.297 64.006C121.148 63.7447 120.933 63.5487 120.653 63.418C120.382 63.278 120.07 63.208 119.715 63.208C119.351 63.208 119.029 63.278 118.749 63.418C118.478 63.5487 118.268 63.74 118.119 63.992C117.97 64.2347 117.895 64.5287 117.895 64.874H116.565C116.565 64.314 116.696 63.8193 116.957 63.39C117.218 62.9607 117.587 62.6293 118.063 62.396C118.539 62.1533 119.09 62.032 119.715 62.032C120.331 62.032 120.877 62.1487 121.353 62.382C121.829 62.6153 122.202 62.9467 122.473 63.376C122.744 63.8053 122.879 64.3233 122.879 64.93C122.879 65.602 122.734 66.1527 122.445 66.582C122.156 67.002 121.754 67.3147 121.241 67.52C120.737 67.716 120.154 67.814 119.491 67.814L119.463 69.074H118.231ZM118.847 72.07C118.576 72.07 118.352 71.986 118.175 71.818C118.007 71.6407 117.923 71.4307 117.923 71.188C117.923 70.936 118.007 70.726 118.175 70.558C118.352 70.3807 118.576 70.292 118.847 70.292C119.118 70.292 119.337 70.3807 119.505 70.558C119.673 70.726 119.757 70.936 119.757 71.188C119.757 71.4307 119.673 71.6407 119.505 71.818C119.337 71.986 119.118 72.07 118.847 72.07Z" fill="#334155"/>
<g filter="url(#filter1_d_95_467)">
<rect x="24" y="114" width="32" height="32" rx="16" fill="#FF914D" shape-rendering="crispEdges"/>
<path d="M40.0001 126.667V123.333H36.6667" stroke="white" stroke-width="1.66667" stroke-linecap="round" stroke-linejoin="round"/>
<path d="M44.9999 126.667H34.9999C34.0794 126.667 33.3333 127.413 33.3333 128.333V135C33.3333 135.92 34.0794 136.667 34.9999 136.667H44.9999C45.9204 136.667 46.6666 135.92 46.6666 135V128.333C46.6666 127.413 45.9204 126.667 44.9999 126.667Z" stroke="white" stroke-width="1.66667" stroke-linecap="round" stroke-linejoin="round"/>
<path d="M31.6667 131.667H33.3334" stroke="white" stroke-width="1.66667" stroke-linecap="round" stroke-linejoin="round"/>
<path d="M46.6667 131.667H48.3334" stroke="white" stroke-width="1.66667" stroke-linecap="round" stroke-linejoin="round"/>
<path d="M42.5 130.833V132.5" stroke="white" stroke-width="1.66667" stroke-linecap="round" stroke-linejoin="round"/>
<path d="M37.5 130.833V132.5" stroke="white" stroke-width="1.66667" stroke-linecap="round" stroke-linejoin="round"/>
</g>
<path d="M64.73 133.5V126.5H67.35C67.91 126.5 68.3733 126.597 68.74 126.79C69.1133 126.983 69.39 127.243 69.57 127.57C69.75 127.89 69.84 128.247 69.84 128.64C69.84 129.013 69.75 129.363 69.57 129.69C69.3967 130.01 69.1233 130.27 68.75 130.47C68.3833 130.663 67.91 130.76 67.33 130.76H66.08V133.5H64.73ZM68.36 133.5L66.92 130.42H68.38L69.9 133.5H68.36ZM66.08 129.78H67.26C67.6733 129.78 67.9767 129.68 68.17 129.48C68.3633 129.28 68.46 129.017 68.46 128.69C68.46 128.363 68.3633 128.107 68.17 127.92C67.9767 127.727 67.6733 127.63 67.26 127.63H66.08V129.78ZM71.607 133.5V126.5H72.957V133.5H71.607ZM77.3295 133.62C76.8228 133.62 76.3695 133.533 75.9695 133.36C75.5761 133.187 75.2628 132.933 75.0295 132.6C74.8028 132.267 74.6861 131.863 74.6795 131.39H76.1095C76.1161 131.597 76.1695 131.783 76.2695 131.95C76.3695 132.117 76.5061 132.25 76.6795 132.35C76.8595 132.443 77.0728 132.49 77.3195 132.49C77.5328 132.49 77.7161 132.457 77.8695 132.39C78.0295 132.317 78.1528 132.217 78.2395 132.09C78.3261 131.963 78.3695 131.813 78.3695 131.64C78.3695 131.46 78.3228 131.303 78.2295 131.17C78.1428 131.037 78.0195 130.923 77.8595 130.83C77.6995 130.73 77.5095 130.64 77.2895 130.56C77.0761 130.48 76.8461 130.4 76.5995 130.32C76.0128 130.14 75.5728 129.897 75.2795 129.59C74.9861 129.283 74.8395 128.883 74.8395 128.39C74.8395 127.97 74.9395 127.61 75.1395 127.31C75.3395 127.01 75.6195 126.78 75.9795 126.62C76.3395 126.46 76.7495 126.38 77.2095 126.38C77.6828 126.38 78.0961 126.463 78.4495 126.63C78.8095 126.79 79.0928 127.023 79.2995 127.33C79.5128 127.637 79.6261 127.997 79.6395 128.41H78.1895C78.1828 128.257 78.1361 128.113 78.0495 127.98C77.9695 127.84 77.8561 127.73 77.7095 127.65C77.5628 127.563 77.3895 127.52 77.1895 127.52C77.0161 127.513 76.8561 127.54 76.7095 127.6C76.5695 127.66 76.4595 127.75 76.3795 127.87C76.2995 127.983 76.2595 128.127 76.2595 128.3C76.2595 128.467 76.2995 128.607 76.3795 128.72C76.4595 128.833 76.5728 128.933 76.7195 129.02C76.8661 129.1 77.0395 129.177 77.2395 129.25C77.4395 129.317 77.6561 129.387 77.8895 129.46C78.2428 129.58 78.5628 129.723 78.8495 129.89C79.1428 130.05 79.3761 130.26 79.5495 130.52C79.7228 130.78 79.8095 131.123 79.8095 131.55C79.8095 131.917 79.7128 132.257 79.5195 132.57C79.3328 132.883 79.0561 133.137 78.6895 133.33C78.3228 133.523 77.8695 133.62 77.3295 133.62ZM83.0841 133.5V127.59H81.0341V126.5H86.4641V127.59H84.4241V133.5H83.0841ZM90.8454 133.62C90.1854 133.62 89.6054 133.467 89.1054 133.16C88.6054 132.853 88.2121 132.43 87.9254 131.89C87.6454 131.343 87.5054 130.713 87.5054 130C87.5054 129.287 87.6454 128.66 87.9254 128.12C88.2121 127.573 88.6054 127.147 89.1054 126.84C89.6054 126.533 90.1854 126.38 90.8454 126.38C91.5054 126.38 92.0854 126.533 92.5854 126.84C93.0921 127.147 93.4854 127.573 93.7654 128.12C94.0454 128.66 94.1854 129.287 94.1854 130C94.1854 130.713 94.0454 131.343 93.7654 131.89C93.4854 132.43 93.0921 132.853 92.5854 133.16C92.0854 133.467 91.5054 133.62 90.8454 133.62ZM90.8454 132.41C91.2454 132.41 91.5921 132.313 91.8854 132.12C92.1787 131.92 92.4054 131.64 92.5654 131.28C92.7254 130.92 92.8054 130.493 92.8054 130C92.8054 129.5 92.7254 129.073 92.5654 128.72C92.4054 128.36 92.1787 128.083 91.8854 127.89C91.5921 127.697 91.2454 127.6 90.8454 127.6C90.4454 127.6 90.0987 127.697 89.8054 127.89C89.5121 128.083 89.2821 128.36 89.1154 128.72C88.9554 129.073 88.8754 129.5 88.8754 130C88.8754 130.493 88.9554 130.92 89.1154 131.28C89.2821 131.64 89.5121 131.92 89.8054 132.12C90.0987 132.313 90.4454 132.41 90.8454 132.41ZM98.2849 133.5L100.845 126.5H102.375L104.925 133.5H103.495L101.595 128.04L99.6949 133.5H98.2849ZM99.4149 131.91L99.7749 130.86H103.335L103.685 131.91H99.4149ZM106.394 133.5V126.5H107.744V133.5H106.394Z" fill="#94A3B8"/>
<path d="M24 154H252.8C261.637 154 268.8 161.163 268.8 170V210C268.8 218.837 261.637 226 252.8 226H40C31.1635 226 24 218.837 24 210V154Z" fill="#FF914D" fill-opacity="0.05"/>
<path d="M252.8 154.5C261.36 154.5 268.3 161.44 268.3 170V210C268.3 218.56 261.36 225.5 252.8 225.5H40C31.4396 225.5 24.5 218.56 24.5 210V154.5H252.8Z" stroke="#FF914D" stroke-opacity="0.1"/>
<g filter="url(#filter2_dd_95_467)">
<rect x="24" y="154" width="244.8" height="72" fill="white" fill-opacity="0.01" shape-rendering="crispEdges"/>
</g>
<path d="M44.486 183V179.36L41.252 173.2H42.834L45.368 178.352H45.018L47.538 173.2H49.106L45.886 179.36V183H44.486ZM52.295 183.168C51.6324 183.168 51.035 183.014 50.503 182.706C49.9804 182.398 49.565 181.969 49.257 181.418C48.9584 180.858 48.809 180.214 48.809 179.486C48.809 178.739 48.963 178.091 49.271 177.54C49.579 176.98 49.999 176.546 50.531 176.238C51.063 175.93 51.6604 175.776 52.323 175.776C52.995 175.776 53.5924 175.93 54.115 176.238C54.6377 176.546 55.0484 176.975 55.347 177.526C55.655 178.077 55.809 178.725 55.809 179.472C55.809 180.219 55.655 180.867 55.347 181.418C55.0484 181.969 54.633 182.398 54.101 182.706C53.569 183.014 52.967 183.168 52.295 183.168ZM52.295 181.964C52.6777 181.964 53.023 181.871 53.331 181.684C53.6484 181.497 53.9004 181.222 54.087 180.858C54.283 180.485 54.381 180.023 54.381 179.472C54.381 178.921 54.2877 178.464 54.101 178.1C53.9144 177.727 53.6624 177.447 53.345 177.26C53.037 177.073 52.6964 176.98 52.323 176.98C51.9497 176.98 51.6044 177.073 51.287 177.26C50.9697 177.447 50.713 177.727 50.517 178.1C50.3304 178.464 50.237 178.921 50.237 179.472C50.237 180.023 50.3304 180.485 50.517 180.858C50.713 181.222 50.965 181.497 51.273 181.684C51.5904 181.871 51.931 181.964 52.295 181.964ZM60.0459 183.168C59.4952 183.168 59.0146 183.056 58.6039 182.832C58.2026 182.608 57.8899 182.272 57.6659 181.824C57.4512 181.376 57.3439 180.811 57.3439 180.13V175.944H58.7439V179.976C58.7439 180.639 58.8886 181.138 59.1779 181.474C59.4672 181.81 59.8826 181.978 60.4239 181.978C60.7879 181.978 61.1146 181.889 61.4039 181.712C61.7026 181.535 61.9359 181.278 62.1039 180.942C62.2719 180.606 62.3559 180.195 62.3559 179.71V175.944H63.7559V183H62.5099L62.4119 181.796C62.1972 182.225 61.8846 182.561 61.4739 182.804C61.0632 183.047 60.5872 183.168 60.0459 183.168ZM65.6727 183V175.944H66.9327L67.0587 177.274C67.2174 176.957 67.4227 176.691 67.6747 176.476C67.9267 176.252 68.2207 176.079 68.5567 175.958C68.902 175.837 69.294 175.776 69.7327 175.776V177.26H69.2287C68.9394 177.26 68.664 177.297 68.4027 177.372C68.1414 177.437 67.908 177.554 67.7027 177.722C67.5067 177.89 67.3527 178.119 67.2407 178.408C67.1287 178.697 67.0727 179.057 67.0727 179.486V183H65.6727ZM74.6984 183V175.944H76.0984V183H74.6984ZM75.4124 174.614C75.1418 174.614 74.9178 174.53 74.7404 174.362C74.5724 174.194 74.4884 173.979 74.4884 173.718C74.4884 173.466 74.5724 173.261 74.7404 173.102C74.9178 172.934 75.1418 172.85 75.4124 172.85C75.6738 172.85 75.8931 172.934 76.0704 173.102C76.2478 173.261 76.3364 173.466 76.3364 173.718C76.3364 173.979 76.2478 174.194 76.0704 174.362C75.8931 174.53 75.6738 174.614 75.4124 174.614ZM78.1004 183V175.944H79.3604L79.4444 177.148C79.6684 176.728 79.9858 176.397 80.3964 176.154C80.8071 175.902 81.2784 175.776 81.8104 175.776C82.3704 175.776 82.8511 175.888 83.2524 176.112C83.6538 176.336 83.9664 176.677 84.1904 177.134C84.4144 177.582 84.5264 178.147 84.5264 178.828V183H83.1264V178.968C83.1264 178.315 82.9818 177.82 82.6924 177.484C82.4031 177.148 81.9831 176.98 81.4324 176.98C81.0684 176.98 80.7418 177.069 80.4524 177.246C80.1631 177.414 79.9298 177.666 79.7524 178.002C79.5844 178.338 79.5004 178.749 79.5004 179.234V183H78.1004ZM89.1872 186.248C88.5432 186.248 87.9739 186.164 87.4792 185.996C86.9846 185.837 86.6019 185.59 86.3312 185.254C86.0606 184.918 85.9252 184.507 85.9252 184.022C85.9252 183.77 85.9812 183.513 86.0932 183.252C86.2052 183 86.3872 182.757 86.6392 182.524C86.8912 182.291 87.2319 182.081 87.6612 181.894L88.4452 182.524C87.9692 182.701 87.6472 182.911 87.4792 183.154C87.3206 183.406 87.2412 183.649 87.2412 183.882C87.2412 184.162 87.3252 184.395 87.4932 184.582C87.6612 184.769 87.8899 184.909 88.1792 185.002C88.4779 185.095 88.8139 185.142 89.1872 185.142C89.5512 185.142 89.8686 185.091 90.1392 184.988C90.4099 184.885 90.6199 184.741 90.7692 184.554C90.9186 184.367 90.9932 184.148 90.9932 183.896C90.9932 183.597 90.8812 183.345 90.6572 183.14C90.4332 182.944 90.0039 182.827 89.3692 182.79C88.8372 182.753 88.3846 182.701 88.0112 182.636C87.6472 182.571 87.3346 182.491 87.0732 182.398C86.8212 182.305 86.6066 182.202 86.4292 182.09C86.2612 181.978 86.1166 181.861 85.9952 181.74V181.418L87.3952 179.976L88.5292 180.368L87.0032 181.782L87.2972 181.152C87.3999 181.217 87.4979 181.283 87.5912 181.348C87.6846 181.404 87.8106 181.455 87.9692 181.502C88.1279 181.549 88.3426 181.591 88.6132 181.628C88.8839 181.665 89.2386 181.703 89.6772 181.74C90.3119 181.787 90.8206 181.899 91.2032 182.076C91.5952 182.253 91.8799 182.491 92.0572 182.79C92.2346 183.089 92.3232 183.443 92.3232 183.854C92.3232 184.255 92.2112 184.638 91.9872 185.002C91.7726 185.366 91.4319 185.665 90.9652 185.898C90.5079 186.131 89.9152 186.248 89.1872 186.248ZM89.1872 180.83C88.5899 180.83 88.0812 180.718 87.6612 180.494C87.2506 180.27 86.9332 179.967 86.7092 179.584C86.4946 179.201 86.3872 178.777 86.3872 178.31C86.3872 177.834 86.4946 177.409 86.7092 177.036C86.9332 176.653 87.2552 176.35 87.6752 176.126C88.0952 175.893 88.5992 175.776 89.1872 175.776C89.7752 175.776 90.2746 175.893 90.6852 176.126C91.1052 176.35 91.4226 176.653 91.6372 177.036C91.8612 177.409 91.9732 177.834 91.9732 178.31C91.9732 178.777 91.8612 179.201 91.6372 179.584C91.4226 179.967 91.1052 180.27 90.6852 180.494C90.2746 180.718 89.7752 180.83 89.1872 180.83ZM89.1872 179.71C89.6446 179.71 90.0086 179.593 90.2792 179.36C90.5499 179.117 90.6852 178.767 90.6852 178.31C90.6852 177.853 90.5499 177.507 90.2792 177.274C90.0086 177.031 89.6446 176.91 89.1872 176.91C88.7299 176.91 88.3612 177.031 88.0812 177.274C87.8012 177.507 87.6612 177.853 87.6612 178.31C87.6612 178.767 87.8012 179.117 88.0812 179.36C88.3612 179.593 88.7299 179.71 89.1872 179.71ZM90.3352 177.05L89.9992 175.944H92.8972V176.91L90.3352 177.05ZM94.3016 183V175.944H95.5616L95.6876 177.274C95.8463 176.957 96.0516 176.691 96.3036 176.476C96.5556 176.252 96.8496 176.079 97.1856 175.958C97.5309 175.837 97.9229 175.776 98.3616 175.776V177.26H97.8576C97.5683 177.26 97.2929 177.297 97.0316 177.372C96.7703 177.437 96.5369 177.554 96.3316 177.722C96.1356 177.89 95.9816 178.119 95.8696 178.408C95.7576 178.697 95.7016 179.057 95.7016 179.486V183H94.3016ZM102.634 183.168C101.962 183.168 101.365 183.014 100.842 182.706C100.32 182.398 99.9089 181.969 99.6102 181.418C99.3209 180.867 99.1762 180.228 99.1762 179.5C99.1762 178.753 99.3209 178.105 99.6102 177.554C99.9089 176.994 100.32 176.56 100.842 176.252C101.365 175.935 101.972 175.776 102.662 175.776C103.353 175.776 103.946 175.93 104.44 176.238C104.935 176.546 105.318 176.957 105.588 177.47C105.859 177.974 105.994 178.534 105.994 179.15C105.994 179.243 105.99 179.346 105.98 179.458C105.98 179.561 105.976 179.677 105.966 179.808H100.198V178.814H104.594C104.566 178.226 104.37 177.769 104.006 177.442C103.642 177.106 103.19 176.938 102.648 176.938C102.266 176.938 101.916 177.027 101.598 177.204C101.281 177.372 101.024 177.624 100.828 177.96C100.642 178.287 100.548 178.702 100.548 179.206V179.598C100.548 180.121 100.642 180.564 100.828 180.928C101.024 181.283 101.281 181.553 101.598 181.74C101.916 181.917 102.261 182.006 102.634 182.006C103.082 182.006 103.451 181.908 103.74 181.712C104.03 181.516 104.244 181.25 104.384 180.914H105.784C105.663 181.343 105.458 181.731 105.168 182.076C104.879 182.412 104.52 182.678 104.09 182.874C103.67 183.07 103.185 183.168 102.634 183.168ZM110.686 183.168C110.014 183.168 109.421 183.009 108.908 182.692C108.394 182.365 107.993 181.927 107.704 181.376C107.424 180.816 107.284 180.181 107.284 179.472C107.284 178.753 107.424 178.119 107.704 177.568C107.993 177.017 108.394 176.583 108.908 176.266C109.43 175.939 110.028 175.776 110.7 175.776C111.25 175.776 111.736 175.888 112.156 176.112C112.576 176.327 112.902 176.635 113.136 177.036V172.92H114.536V183H113.276L113.136 181.908C112.996 182.123 112.814 182.328 112.59 182.524C112.366 182.711 112.095 182.865 111.778 182.986C111.46 183.107 111.096 183.168 110.686 183.168ZM110.91 181.95C111.348 181.95 111.736 181.847 112.072 181.642C112.408 181.437 112.664 181.147 112.842 180.774C113.028 180.401 113.122 179.967 113.122 179.472C113.122 178.977 113.028 178.548 112.842 178.184C112.664 177.811 112.408 177.521 112.072 177.316C111.736 177.101 111.348 176.994 110.91 176.994C110.49 176.994 110.112 177.101 109.776 177.316C109.44 177.521 109.178 177.811 108.992 178.184C108.805 178.548 108.712 178.977 108.712 179.472C108.712 179.967 108.805 180.401 108.992 180.774C109.178 181.147 109.44 181.437 109.776 181.642C110.112 181.847 110.49 181.95 110.91 181.95ZM116.548 183V175.944H117.948V183H116.548ZM117.262 174.614C116.991 174.614 116.767 174.53 116.59 174.362C116.422 174.194 116.338 173.979 116.338 173.718C116.338 173.466 116.422 173.261 116.59 173.102C116.767 172.934 116.991 172.85 117.262 172.85C117.523 172.85 117.743 172.934 117.92 173.102C118.097 173.261 118.186 173.466 118.186 173.718C118.186 173.979 118.097 174.194 117.92 174.362C117.743 174.53 117.523 174.614 117.262 174.614ZM123.142 183.168C122.47 183.168 121.873 183.014 121.35 182.706C120.827 182.398 120.417 181.969 120.118 181.418C119.829 180.867 119.684 180.228 119.684 179.5C119.684 178.753 119.829 178.105 120.118 177.554C120.417 176.994 120.827 176.56 121.35 176.252C121.873 175.935 122.479 175.776 123.17 175.776C123.861 175.776 124.453 175.93 124.948 176.238C125.443 176.546 125.825 176.957 126.096 177.47C126.367 177.974 126.502 178.534 126.502 179.15C126.502 179.243 126.497 179.346 126.488 179.458C126.488 179.561 126.483 179.677 126.474 179.808H120.706V178.814H125.102C125.074 178.226 124.878 177.769 124.514 177.442C124.15 177.106 123.697 176.938 123.156 176.938C122.773 176.938 122.423 177.027 122.106 177.204C121.789 177.372 121.532 177.624 121.336 177.96C121.149 178.287 121.056 178.702 121.056 179.206V179.598C121.056 180.121 121.149 180.564 121.336 180.928C121.532 181.283 121.789 181.553 122.106 181.74C122.423 181.917 122.769 182.006 123.142 182.006C123.59 182.006 123.959 181.908 124.248 181.712C124.537 181.516 124.752 181.25 124.892 180.914H126.292C126.171 181.343 125.965 181.731 125.676 182.076C125.387 182.412 125.027 182.678 124.598 182.874C124.178 183.07 123.693 183.168 123.142 183.168ZM128.057 183V175.944H129.317L129.401 177.148C129.625 176.728 129.943 176.397 130.353 176.154C130.764 175.902 131.235 175.776 131.767 175.776C132.327 175.776 132.808 175.888 133.209 176.112C133.611 176.336 133.923 176.677 134.147 177.134C134.371 177.582 134.483 178.147 134.483 178.828V183H133.083V178.968C133.083 178.315 132.939 177.82 132.649 177.484C132.36 177.148 131.94 176.98 131.389 176.98C131.025 176.98 130.699 177.069 130.409 177.246C130.12 177.414 129.887 177.666 129.709 178.002C129.541 178.338 129.457 178.749 129.457 179.234V183H128.057ZM139.186 183C138.738 183 138.351 182.93 138.024 182.79C137.698 182.65 137.446 182.417 137.268 182.09C137.091 181.763 137.002 181.32 137.002 180.76V177.134H135.784V175.944H137.002L137.17 174.18H138.402V175.944H140.404V177.134H138.402V180.774C138.402 181.175 138.486 181.451 138.654 181.6C138.822 181.74 139.112 181.81 139.522 181.81H140.334V183H139.186ZM148.792 183.168C148.111 183.168 147.504 183.014 146.972 182.706C146.44 182.389 146.02 181.955 145.712 181.404C145.413 180.853 145.264 180.214 145.264 179.486C145.264 178.749 145.413 178.105 145.712 177.554C146.02 176.994 146.44 176.56 146.972 176.252C147.504 175.935 148.111 175.776 148.792 175.776C149.651 175.776 150.369 176 150.948 176.448C151.527 176.896 151.895 177.503 152.054 178.268H150.598C150.505 177.857 150.29 177.54 149.954 177.316C149.627 177.092 149.235 176.98 148.778 176.98C148.405 176.98 148.059 177.078 147.742 177.274C147.425 177.461 147.168 177.741 146.972 178.114C146.785 178.478 146.692 178.931 146.692 179.472C146.692 179.873 146.748 180.233 146.86 180.55C146.972 180.858 147.121 181.119 147.308 181.334C147.504 181.549 147.728 181.712 147.98 181.824C148.232 181.927 148.498 181.978 148.778 181.978C149.086 181.978 149.361 181.931 149.604 181.838C149.856 181.735 150.066 181.586 150.234 181.39C150.411 181.194 150.533 180.961 150.598 180.69H152.054C151.895 181.437 151.527 182.039 150.948 182.496C150.369 182.944 149.651 183.168 148.792 183.168ZM156.912 183.168C156.25 183.168 155.652 183.014 155.12 182.706C154.598 182.398 154.182 181.969 153.874 181.418C153.576 180.858 153.426 180.214 153.426 179.486C153.426 178.739 153.58 178.091 153.888 177.54C154.196 176.98 154.616 176.546 155.148 176.238C155.68 175.93 156.278 175.776 156.94 175.776C157.612 175.776 158.21 175.93 158.732 176.238C159.255 176.546 159.666 176.975 159.964 177.526C160.272 178.077 160.426 178.725 160.426 179.472C160.426 180.219 160.272 180.867 159.964 181.418C159.666 181.969 159.25 182.398 158.718 182.706C158.186 183.014 157.584 183.168 156.912 183.168ZM156.912 181.964C157.295 181.964 157.64 181.871 157.948 181.684C158.266 181.497 158.518 181.222 158.704 180.858C158.9 180.485 158.998 180.023 158.998 179.472C158.998 178.921 158.905 178.464 158.718 178.1C158.532 177.727 158.28 177.447 157.962 177.26C157.654 177.073 157.314 176.98 156.94 176.98C156.567 176.98 156.222 177.073 155.904 177.26C155.587 177.447 155.33 177.727 155.134 178.1C154.948 178.464 154.854 178.921 154.854 179.472C154.854 180.023 154.948 180.485 155.134 180.858C155.33 181.222 155.582 181.497 155.89 181.684C156.208 181.871 156.548 181.964 156.912 181.964ZM164.803 183.168C164.206 183.168 163.683 183.07 163.235 182.874C162.787 182.678 162.432 182.403 162.171 182.048C161.91 181.693 161.751 181.278 161.695 180.802H163.123C163.17 181.026 163.258 181.231 163.389 181.418C163.529 181.605 163.716 181.754 163.949 181.866C164.192 181.978 164.476 182.034 164.803 182.034C165.111 182.034 165.363 181.992 165.559 181.908C165.764 181.815 165.914 181.693 166.007 181.544C166.1 181.385 166.147 181.217 166.147 181.04C166.147 180.779 166.082 180.583 165.951 180.452C165.83 180.312 165.643 180.205 165.391 180.13C165.148 180.046 164.854 179.971 164.509 179.906C164.182 179.85 163.865 179.775 163.557 179.682C163.258 179.579 162.988 179.453 162.745 179.304C162.512 179.155 162.325 178.968 162.185 178.744C162.045 178.511 161.975 178.226 161.975 177.89C161.975 177.489 162.082 177.129 162.297 176.812C162.512 176.485 162.815 176.233 163.207 176.056C163.608 175.869 164.08 175.776 164.621 175.776C165.405 175.776 166.035 175.963 166.511 176.336C166.987 176.709 167.267 177.237 167.351 177.918H165.993C165.956 177.601 165.816 177.358 165.573 177.19C165.33 177.013 165.008 176.924 164.607 176.924C164.206 176.924 163.898 177.003 163.683 177.162C163.468 177.321 163.361 177.531 163.361 177.792C163.361 177.96 163.422 178.109 163.543 178.24C163.664 178.371 163.842 178.483 164.075 178.576C164.318 178.66 164.612 178.739 164.957 178.814C165.452 178.907 165.895 179.024 166.287 179.164C166.679 179.304 166.992 179.509 167.225 179.78C167.458 180.051 167.575 180.438 167.575 180.942C167.584 181.381 167.472 181.768 167.239 182.104C167.015 182.44 166.693 182.701 166.273 182.888C165.862 183.075 165.372 183.168 164.803 183.168ZM171.848 183C171.4 183 171.013 182.93 170.686 182.79C170.36 182.65 170.108 182.417 169.93 182.09C169.753 181.763 169.664 181.32 169.664 180.76V177.134H168.446V175.944H169.664L169.832 174.18H171.064V175.944H173.066V177.134H171.064V180.774C171.064 181.175 171.148 181.451 171.316 181.6C171.484 181.74 171.774 181.81 172.184 181.81H172.996V183H171.848ZM178.29 183V175.944H179.69V183H178.29ZM179.004 174.614C178.734 174.614 178.51 174.53 178.332 174.362C178.164 174.194 178.08 173.979 178.08 173.718C178.08 173.466 178.164 173.261 178.332 173.102C178.51 172.934 178.734 172.85 179.004 172.85C179.266 172.85 179.485 172.934 179.662 173.102C179.84 173.261 179.928 173.466 179.928 173.718C179.928 173.979 179.84 174.194 179.662 174.362C179.485 174.53 179.266 174.614 179.004 174.614ZM181.692 183V175.944H182.952L183.036 177.148C183.26 176.728 183.578 176.397 183.988 176.154C184.399 175.902 184.87 175.776 185.402 175.776C185.962 175.776 186.443 175.888 186.844 176.112C187.246 176.336 187.558 176.677 187.782 177.134C188.006 177.582 188.118 178.147 188.118 178.828V183H186.718V178.968C186.718 178.315 186.574 177.82 186.284 177.484C185.995 177.148 185.575 176.98 185.024 176.98C184.66 176.98 184.334 177.069 184.044 177.246C183.755 177.414 183.522 177.666 183.344 178.002C183.176 178.338 183.092 178.749 183.092 179.234V183H181.692ZM193.171 183.168C192.49 183.168 191.883 183.014 191.351 182.706C190.819 182.389 190.399 181.955 190.091 181.404C189.792 180.853 189.643 180.214 189.643 179.486C189.643 178.749 189.792 178.105 190.091 177.554C190.399 176.994 190.819 176.56 191.351 176.252C191.883 175.935 192.49 175.776 193.171 175.776C194.03 175.776 194.748 176 195.327 176.448C195.906 176.896 196.274 177.503 196.433 178.268H194.977C194.884 177.857 194.669 177.54 194.333 177.316C194.006 177.092 193.614 176.98 193.157 176.98C192.784 176.98 192.438 177.078 192.121 177.274C191.804 177.461 191.547 177.741 191.351 178.114C191.164 178.478 191.071 178.931 191.071 179.472C191.071 179.873 191.127 180.233 191.239 180.55C191.351 180.858 191.5 181.119 191.687 181.334C191.883 181.549 192.107 181.712 192.359 181.824C192.611 181.927 192.877 181.978 193.157 181.978C193.465 181.978 193.74 181.931 193.983 181.838C194.235 181.735 194.445 181.586 194.613 181.39C194.79 181.194 194.912 180.961 194.977 180.69H196.433C196.274 181.437 195.906 182.039 195.327 182.496C194.748 182.944 194.03 183.168 193.171 183.168ZM198.071 183V175.944H199.331L199.457 177.274C199.616 176.957 199.821 176.691 200.073 176.476C200.325 176.252 200.619 176.079 200.955 175.958C201.3 175.837 201.692 175.776 202.131 175.776V177.26H201.627C201.338 177.26 201.062 177.297 200.801 177.372C200.54 177.437 200.306 177.554 200.101 177.722C199.905 177.89 199.751 178.119 199.639 178.408C199.527 178.697 199.471 179.057 199.471 179.486V183H198.071ZM206.404 183.168C205.732 183.168 205.134 183.014 204.612 182.706C204.089 182.398 203.678 181.969 203.38 181.418C203.09 180.867 202.946 180.228 202.946 179.5C202.946 178.753 203.09 178.105 203.38 177.554C203.678 176.994 204.089 176.56 204.612 176.252C205.134 175.935 205.741 175.776 206.432 175.776C207.122 175.776 207.715 175.93 208.21 176.238C208.704 176.546 209.087 176.957 209.358 177.47C209.628 177.974 209.764 178.534 209.764 179.15C209.764 179.243 209.759 179.346 209.75 179.458C209.75 179.561 209.745 179.677 209.736 179.808H203.968V178.814H208.364C208.336 178.226 208.14 177.769 207.776 177.442C207.412 177.106 206.959 176.938 206.418 176.938C206.035 176.938 205.685 177.027 205.368 177.204C205.05 177.372 204.794 177.624 204.598 177.96C204.411 178.287 204.318 178.702 204.318 179.206V179.598C204.318 180.121 204.411 180.564 204.598 180.928C204.794 181.283 205.05 181.553 205.368 181.74C205.685 181.917 206.03 182.006 206.404 182.006C206.852 182.006 207.22 181.908 207.51 181.712C207.799 181.516 208.014 181.25 208.154 180.914H209.554C209.432 181.343 209.227 181.731 208.938 182.076C208.648 182.412 208.289 182.678 207.86 182.874C207.44 183.07 206.954 183.168 206.404 183.168ZM213.657 183.168C213.079 183.168 212.598 183.07 212.215 182.874C211.833 182.678 211.548 182.417 211.361 182.09C211.175 181.754 211.081 181.395 211.081 181.012C211.081 180.545 211.203 180.149 211.445 179.822C211.688 179.486 212.033 179.229 212.481 179.052C212.929 178.875 213.466 178.786 214.091 178.786H215.925C215.925 178.375 215.865 178.035 215.743 177.764C215.622 177.493 215.44 177.293 215.197 177.162C214.964 177.022 214.665 176.952 214.301 176.952C213.881 176.952 213.522 177.055 213.223 177.26C212.925 177.456 212.738 177.75 212.663 178.142H211.263C211.319 177.647 211.487 177.227 211.767 176.882C212.057 176.527 212.425 176.257 212.873 176.07C213.321 175.874 213.797 175.776 214.301 175.776C214.964 175.776 215.519 175.893 215.967 176.126C216.415 176.359 216.751 176.691 216.975 177.12C217.209 177.54 217.325 178.044 217.325 178.632V183H216.107L215.995 181.81C215.893 181.997 215.771 182.174 215.631 182.342C215.491 182.51 215.323 182.655 215.127 182.776C214.941 182.897 214.721 182.991 214.469 183.056C214.227 183.131 213.956 183.168 213.657 183.168ZM213.923 182.034C214.222 182.034 214.493 181.973 214.735 181.852C214.978 181.731 215.183 181.567 215.351 181.362C215.529 181.147 215.659 180.909 215.743 180.648C215.837 180.377 215.888 180.102 215.897 179.822V179.78H214.231C213.83 179.78 213.503 179.831 213.251 179.934C213.009 180.027 212.831 180.158 212.719 180.326C212.607 180.494 212.551 180.69 212.551 180.914C212.551 181.147 212.603 181.348 212.705 181.516C212.817 181.675 212.976 181.801 213.181 181.894C213.387 181.987 213.634 182.034 213.923 182.034ZM221.842 183.168C221.245 183.168 220.722 183.07 220.274 182.874C219.826 182.678 219.471 182.403 219.21 182.048C218.949 181.693 218.79 181.278 218.734 180.802H220.162C220.209 181.026 220.297 181.231 220.428 181.418C220.568 181.605 220.755 181.754 220.988 181.866C221.231 181.978 221.515 182.034 221.842 182.034C222.15 182.034 222.402 181.992 222.598 181.908C222.803 181.815 222.953 181.693 223.046 181.544C223.139 181.385 223.186 181.217 223.186 181.04C223.186 180.779 223.121 180.583 222.99 180.452C222.869 180.312 222.682 180.205 222.43 180.13C222.187 180.046 221.893 179.971 221.548 179.906C221.221 179.85 220.904 179.775 220.596 179.682C220.297 179.579 220.027 179.453 219.784 179.304C219.551 179.155 219.364 178.968 219.224 178.744C219.084 178.511 219.014 178.226 219.014 177.89C219.014 177.489 219.121 177.129 219.336 176.812C219.551 176.485 219.854 176.233 220.246 176.056C220.647 175.869 221.119 175.776 221.66 175.776C222.444 175.776 223.074 175.963 223.55 176.336C224.026 176.709 224.306 177.237 224.39 177.918H223.032C222.995 177.601 222.855 177.358 222.612 177.19C222.369 177.013 222.047 176.924 221.646 176.924C221.245 176.924 220.937 177.003 220.722 177.162C220.507 177.321 220.4 177.531 220.4 177.792C220.4 177.96 220.461 178.109 220.582 178.24C220.703 178.371 220.881 178.483 221.114 178.576C221.357 178.66 221.651 178.739 221.996 178.814C222.491 178.907 222.934 179.024 223.326 179.164C223.718 179.304 224.031 179.509 224.264 179.78C224.497 180.051 224.614 180.438 224.614 180.942C224.623 181.381 224.511 181.768 224.278 182.104C224.054 182.44 223.732 182.701 223.312 182.888C222.901 183.075 222.411 183.168 221.842 183.168ZM229.455 183.168C228.783 183.168 228.185 183.014 227.663 182.706C227.14 182.398 226.729 181.969 226.431 181.418C226.141 180.867 225.997 180.228 225.997 179.5C225.997 178.753 226.141 178.105 226.431 177.554C226.729 176.994 227.14 176.56 227.663 176.252C228.185 175.935 228.792 175.776 229.483 175.776C230.173 175.776 230.766 175.93 231.261 176.238C231.755 176.546 232.138 176.957 232.409 177.47C232.679 177.974 232.815 178.534 232.815 179.15C232.815 179.243 232.81 179.346 232.801 179.458C232.801 179.561 232.796 179.677 232.787 179.808H227.019V178.814H231.415C231.387 178.226 231.191 177.769 230.827 177.442C230.463 177.106 230.01 176.938 229.469 176.938C229.086 176.938 228.736 177.027 228.419 177.204C228.101 177.372 227.845 177.624 227.649 177.96C227.462 178.287 227.369 178.702 227.369 179.206V179.598C227.369 180.121 227.462 180.564 227.649 180.928C227.845 181.283 228.101 181.553 228.419 181.74C228.736 181.917 229.081 182.006 229.455 182.006C229.903 182.006 230.271 181.908 230.561 181.712C230.85 181.516 231.065 181.25 231.205 180.914H232.605C232.483 181.343 232.278 181.731 231.989 182.076C231.699 182.412 231.34 182.678 230.911 182.874C230.491 183.07 230.005 183.168 229.455 183.168ZM237.506 183.168C236.834 183.168 236.241 183.009 235.728 182.692C235.215 182.365 234.813 181.927 234.524 181.376C234.244 180.816 234.104 180.181 234.104 179.472C234.104 178.753 234.244 178.119 234.524 177.568C234.813 177.017 235.215 176.583 235.728 176.266C236.251 175.939 236.848 175.776 237.52 175.776C238.071 175.776 238.556 175.888 238.976 176.112C239.396 176.327 239.723 176.635 239.956 177.036V172.92H241.356V183H240.096L239.956 181.908C239.816 182.123 239.634 182.328 239.41 182.524C239.186 182.711 238.915 182.865 238.598 182.986C238.281 183.107 237.917 183.168 237.506 183.168ZM237.73 181.95C238.169 181.95 238.556 181.847 238.892 181.642C239.228 181.437 239.485 181.147 239.662 180.774C239.849 180.401 239.942 179.967 239.942 179.472C239.942 178.977 239.849 178.548 239.662 178.184C239.485 177.811 239.228 177.521 238.892 177.316C238.556 177.101 238.169 176.994 237.73 176.994C237.31 176.994 236.932 177.101 236.596 177.316C236.26 177.521 235.999 177.811 235.812 178.184C235.625 178.548 235.532 178.977 235.532 179.472C235.532 179.967 235.625 180.401 235.812 180.774C235.999 181.147 236.26 181.437 236.596 181.642C236.932 181.847 237.31 181.95 237.73 181.95ZM45.802 206.168C45.4193 206.168 45.0693 206.112 44.752 206C44.444 205.897 44.1733 205.753 43.94 205.566C43.7067 205.379 43.5107 205.165 43.352 204.922L43.212 206H41.952V195.92H43.352V200.05C43.576 199.695 43.8887 199.397 44.29 199.154C44.7007 198.902 45.2047 198.776 45.802 198.776C46.474 198.776 47.0667 198.939 47.58 199.266C48.0933 199.583 48.49 200.022 48.77 200.582C49.0593 201.133 49.204 201.767 49.204 202.486C49.204 203.186 49.0593 203.816 48.77 204.376C48.49 204.936 48.0933 205.375 47.58 205.692C47.0667 206.009 46.474 206.168 45.802 206.168ZM45.578 204.95C46.0073 204.95 46.3853 204.847 46.712 204.642C47.048 204.437 47.3093 204.147 47.496 203.774C47.692 203.401 47.79 202.967 47.79 202.472C47.79 201.977 47.692 201.548 47.496 201.184C47.3093 200.811 47.048 200.521 46.712 200.316C46.3853 200.101 46.0073 199.994 45.578 199.994C45.1393 199.994 44.752 200.101 44.416 200.316C44.0893 200.521 43.8327 200.811 43.646 201.184C43.4593 201.548 43.366 201.977 43.366 202.472C43.366 202.967 43.4593 203.401 43.646 203.774C43.8327 204.147 44.0893 204.437 44.416 204.642C44.752 204.847 45.1393 204.95 45.578 204.95ZM51.0628 209.08L52.7848 205.216H52.3788L49.5928 198.944H51.1048L53.3168 204.068L55.5428 198.944H57.0128L52.5328 209.08H51.0628ZM94.4874 206.168C93.8061 206.168 93.1994 206.014 92.6674 205.706C92.1354 205.389 91.7154 204.955 91.4074 204.404C91.1088 203.853 90.9594 203.214 90.9594 202.486C90.9594 201.749 91.1088 201.105 91.4074 200.554C91.7154 199.994 92.1354 199.56 92.6674 199.252C93.1994 198.935 93.8061 198.776 94.4874 198.776C95.3461 198.776 96.0648 199 96.6434 199.448C97.2221 199.896 97.5908 200.503 97.7494 201.268H96.2934C96.2001 200.857 95.9854 200.54 95.6494 200.316C95.3228 200.092 94.9308 199.98 94.4734 199.98C94.1001 199.98 93.7548 200.078 93.4374 200.274C93.1201 200.461 92.8634 200.741 92.6674 201.114C92.4808 201.478 92.3874 201.931 92.3874 202.472C92.3874 202.873 92.4434 203.233 92.5554 203.55C92.6674 203.858 92.8168 204.119 93.0034 204.334C93.1994 204.549 93.4234 204.712 93.6754 204.824C93.9274 204.927 94.1934 204.978 94.4734 204.978C94.7814 204.978 95.0568 204.931 95.2994 204.838C95.5514 204.735 95.7614 204.586 95.9294 204.39C96.1068 204.194 96.2281 203.961 96.2934 203.69H97.7494C97.5908 204.437 97.2221 205.039 96.6434 205.496C96.0648 205.944 95.3461 206.168 94.4874 206.168ZM102.608 206.168C101.945 206.168 101.348 206.014 100.816 205.706C100.293 205.398 99.8775 204.969 99.5695 204.418C99.2709 203.858 99.1215 203.214 99.1215 202.486C99.1215 201.739 99.2755 201.091 99.5835 200.54C99.8915 199.98 100.312 199.546 100.844 199.238C101.376 198.93 101.973 198.776 102.636 198.776C103.308 198.776 103.905 198.93 104.428 199.238C104.95 199.546 105.361 199.975 105.66 200.526C105.968 201.077 106.122 201.725 106.122 202.472C106.122 203.219 105.968 203.867 105.66 204.418C105.361 204.969 104.946 205.398 104.414 205.706C103.882 206.014 103.28 206.168 102.608 206.168ZM102.608 204.964C102.99 204.964 103.336 204.871 103.644 204.684C103.961 204.497 104.213 204.222 104.4 203.858C104.596 203.485 104.694 203.023 104.694 202.472C104.694 201.921 104.6 201.464 104.414 201.1C104.227 200.727 103.975 200.447 103.658 200.26C103.35 200.073 103.009 199.98 102.636 199.98C102.262 199.98 101.917 200.073 101.6 200.26C101.282 200.447 101.026 200.727 100.83 201.1C100.643 201.464 100.55 201.921 100.55 202.472C100.55 203.023 100.643 203.485 100.83 203.858C101.026 204.222 101.278 204.497 101.586 204.684C101.903 204.871 102.244 204.964 102.608 204.964ZM107.768 206V198.944H109.028L109.126 199.938C109.35 199.574 109.649 199.289 110.022 199.084C110.396 198.879 110.816 198.776 111.282 198.776C111.637 198.776 111.959 198.827 112.248 198.93C112.538 199.023 112.794 199.168 113.018 199.364C113.242 199.56 113.424 199.803 113.564 200.092C113.816 199.681 114.152 199.359 114.572 199.126C115.002 198.893 115.454 198.776 115.93 198.776C116.5 198.776 116.99 198.893 117.4 199.126C117.811 199.35 118.124 199.691 118.338 200.148C118.553 200.596 118.66 201.156 118.66 201.828V206H117.274V201.968C117.274 201.315 117.139 200.82 116.868 200.484C116.607 200.148 116.22 199.98 115.706 199.98C115.361 199.98 115.053 200.069 114.782 200.246C114.512 200.423 114.297 200.68 114.138 201.016C113.989 201.352 113.914 201.763 113.914 202.248V206H112.514V201.968C112.514 201.315 112.379 200.82 112.108 200.484C111.847 200.148 111.46 199.98 110.946 199.98C110.62 199.98 110.321 200.069 110.05 200.246C109.78 200.423 109.565 200.68 109.406 201.016C109.248 201.352 109.168 201.763 109.168 202.248V206H107.768ZM120.47 209.08V198.944H121.73L121.87 200.036C122.019 199.821 122.206 199.621 122.43 199.434C122.654 199.238 122.92 199.079 123.228 198.958C123.545 198.837 123.914 198.776 124.334 198.776C125.006 198.776 125.594 198.939 126.098 199.266C126.611 199.593 127.008 200.036 127.288 200.596C127.577 201.147 127.722 201.777 127.722 202.486C127.722 203.195 127.577 203.83 127.288 204.39C126.998 204.941 126.597 205.375 126.084 205.692C125.58 206.009 124.992 206.168 124.32 206.168C123.769 206.168 123.284 206.061 122.864 205.846C122.444 205.622 122.112 205.314 121.87 204.922V209.08H120.47ZM124.096 204.95C124.525 204.95 124.903 204.847 125.23 204.642C125.566 204.437 125.827 204.147 126.014 203.774C126.21 203.401 126.308 202.967 126.308 202.472C126.308 201.977 126.21 201.548 126.014 201.184C125.827 200.811 125.566 200.521 125.23 200.316C124.903 200.101 124.525 199.994 124.096 199.994C123.657 199.994 123.27 200.101 122.934 200.316C122.607 200.521 122.35 200.811 122.164 201.184C121.977 201.548 121.884 201.977 121.884 202.472C121.884 202.967 121.977 203.401 122.164 203.774C122.35 204.147 122.607 204.437 122.934 204.642C123.27 204.847 123.657 204.95 124.096 204.95ZM131.694 206.168C131.116 206.168 130.635 206.07 130.252 205.874C129.87 205.678 129.585 205.417 129.398 205.09C129.212 204.754 129.118 204.395 129.118 204.012C129.118 203.545 129.24 203.149 129.482 202.822C129.725 202.486 130.07 202.229 130.518 202.052C130.966 201.875 131.503 201.786 132.128 201.786H133.962C133.962 201.375 133.902 201.035 133.78 200.764C133.659 200.493 133.477 200.293 133.234 200.162C133.001 200.022 132.702 199.952 132.338 199.952C131.918 199.952 131.559 200.055 131.26 200.26C130.962 200.456 130.775 200.75 130.7 201.142H129.3C129.356 200.647 129.524 200.227 129.804 199.882C130.094 199.527 130.462 199.257 130.91 199.07C131.358 198.874 131.834 198.776 132.338 198.776C133.001 198.776 133.556 198.893 134.004 199.126C134.452 199.359 134.788 199.691 135.012 200.12C135.246 200.54 135.362 201.044 135.362 201.632V206H134.144L134.032 204.81C133.93 204.997 133.808 205.174 133.668 205.342C133.528 205.51 133.36 205.655 133.164 205.776C132.978 205.897 132.758 205.991 132.506 206.056C132.264 206.131 131.993 206.168 131.694 206.168ZM131.96 205.034C132.259 205.034 132.53 204.973 132.772 204.852C133.015 204.731 133.22 204.567 133.388 204.362C133.566 204.147 133.696 203.909 133.78 203.648C133.874 203.377 133.925 203.102 133.934 202.822V202.78H132.268C131.867 202.78 131.54 202.831 131.288 202.934C131.046 203.027 130.868 203.158 130.756 203.326C130.644 203.494 130.588 203.69 130.588 203.914C130.588 204.147 130.64 204.348 130.742 204.516C130.854 204.675 131.013 204.801 131.218 204.894C131.424 204.987 131.671 205.034 131.96 205.034ZM137.149 206V198.944H138.409L138.535 200.274C138.694 199.957 138.899 199.691 139.151 199.476C139.403 199.252 139.697 199.079 140.033 198.958C140.379 198.837 140.771 198.776 141.209 198.776V200.26H140.705C140.416 200.26 140.141 200.297 139.879 200.372C139.618 200.437 139.385 200.554 139.179 200.722C138.983 200.89 138.829 201.119 138.717 201.408C138.605 201.697 138.549 202.057 138.549 202.486V206H137.149ZM145.482 206.168C144.81 206.168 144.213 206.014 143.69 205.706C143.167 205.398 142.757 204.969 142.458 204.418C142.169 203.867 142.024 203.228 142.024 202.5C142.024 201.753 142.169 201.105 142.458 200.554C142.757 199.994 143.167 199.56 143.69 199.252C144.213 198.935 144.819 198.776 145.51 198.776C146.201 198.776 146.793 198.93 147.288 199.238C147.783 199.546 148.165 199.957 148.436 200.47C148.707 200.974 148.842 201.534 148.842 202.15C148.842 202.243 148.837 202.346 148.828 202.458C148.828 202.561 148.823 202.677 148.814 202.808H143.046V201.814H147.442C147.414 201.226 147.218 200.769 146.854 200.442C146.49 200.106 146.037 199.938 145.496 199.938C145.113 199.938 144.763 200.027 144.446 200.204C144.129 200.372 143.872 200.624 143.676 200.96C143.489 201.287 143.396 201.702 143.396 202.206V202.598C143.396 203.121 143.489 203.564 143.676 203.928C143.872 204.283 144.129 204.553 144.446 204.74C144.763 204.917 145.109 205.006 145.482 205.006C145.93 205.006 146.299 204.908 146.588 204.712C146.877 204.516 147.092 204.25 147.232 203.914H148.632C148.511 204.343 148.305 204.731 148.016 205.076C147.727 205.412 147.367 205.678 146.938 205.874C146.518 206.07 146.033 206.168 145.482 206.168ZM153.533 206.168C152.861 206.168 152.269 206.009 151.755 205.692C151.242 205.365 150.841 204.927 150.551 204.376C150.271 203.816 150.131 203.181 150.131 202.472C150.131 201.753 150.271 201.119 150.551 200.568C150.841 200.017 151.242 199.583 151.755 199.266C152.278 198.939 152.875 198.776 153.547 198.776C154.098 198.776 154.583 198.888 155.003 199.112C155.423 199.327 155.75 199.635 155.983 200.036V195.92H157.383V206H156.123L155.983 204.908C155.843 205.123 155.661 205.328 155.437 205.524C155.213 205.711 154.943 205.865 154.625 205.986C154.308 206.107 153.944 206.168 153.533 206.168ZM153.757 204.95C154.196 204.95 154.583 204.847 154.919 204.642C155.255 204.437 155.512 204.147 155.689 203.774C155.876 203.401 155.969 202.967 155.969 202.472C155.969 201.977 155.876 201.548 155.689 201.184C155.512 200.811 155.255 200.521 154.919 200.316C154.583 200.101 154.196 199.994 153.757 199.994C153.337 199.994 152.959 200.101 152.623 200.316C152.287 200.521 152.026 200.811 151.839 201.184C151.653 201.548 151.559 201.977 151.559 202.472C151.559 202.967 151.653 203.401 151.839 203.774C152.026 204.147 152.287 204.437 152.623 204.642C152.959 204.847 153.337 204.95 153.757 204.95ZM165.792 206C165.344 206 164.956 205.93 164.63 205.79C164.303 205.65 164.051 205.417 163.874 205.09C163.696 204.763 163.608 204.32 163.608 203.76V200.134H162.39V198.944H163.608L163.776 197.18H165.008V198.944H167.01V200.134H165.008V203.774C165.008 204.175 165.092 204.451 165.26 204.6C165.428 204.74 165.717 204.81 166.128 204.81H166.94V206H165.792ZM171.582 206.168C170.919 206.168 170.322 206.014 169.79 205.706C169.267 205.398 168.852 204.969 168.544 204.418C168.245 203.858 168.096 203.214 168.096 202.486C168.096 201.739 168.25 201.091 168.558 200.54C168.866 199.98 169.286 199.546 169.818 199.238C170.35 198.93 170.947 198.776 171.61 198.776C172.282 198.776 172.879 198.93 173.402 199.238C173.925 199.546 174.335 199.975 174.634 200.526C174.942 201.077 175.096 201.725 175.096 202.472C175.096 203.219 174.942 203.867 174.634 204.418C174.335 204.969 173.92 205.398 173.388 205.706C172.856 206.014 172.254 206.168 171.582 206.168ZM171.582 204.964C171.965 204.964 172.31 204.871 172.618 204.684C172.935 204.497 173.187 204.222 173.374 203.858C173.57 203.485 173.668 203.023 173.668 202.472C173.668 201.921 173.575 201.464 173.388 201.1C173.201 200.727 172.949 200.447 172.632 200.26C172.324 200.073 171.983 199.98 171.61 199.98C171.237 199.98 170.891 200.073 170.574 200.26C170.257 200.447 170 200.727 169.804 201.1C169.617 201.464 169.524 201.921 169.524 202.472C169.524 203.023 169.617 203.485 169.804 203.858C170 204.222 170.252 204.497 170.56 204.684C170.877 204.871 171.218 204.964 171.582 204.964ZM180.325 206V195.92H181.725V206H180.325ZM185.985 206.168C185.407 206.168 184.926 206.07 184.543 205.874C184.161 205.678 183.876 205.417 183.689 205.09C183.503 204.754 183.409 204.395 183.409 204.012C183.409 203.545 183.531 203.149 183.773 202.822C184.016 202.486 184.361 202.229 184.809 202.052C185.257 201.875 185.794 201.786 186.419 201.786H188.253C188.253 201.375 188.193 201.035 188.071 200.764C187.95 200.493 187.768 200.293 187.525 200.162C187.292 200.022 186.993 199.952 186.629 199.952C186.209 199.952 185.85 200.055 185.551 200.26C185.253 200.456 185.066 200.75 184.991 201.142H183.591C183.647 200.647 183.815 200.227 184.095 199.882C184.385 199.527 184.753 199.257 185.201 199.07C185.649 198.874 186.125 198.776 186.629 198.776C187.292 198.776 187.847 198.893 188.295 199.126C188.743 199.359 189.079 199.691 189.303 200.12C189.537 200.54 189.653 201.044 189.653 201.632V206H188.435L188.323 204.81C188.221 204.997 188.099 205.174 187.959 205.342C187.819 205.51 187.651 205.655 187.455 205.776C187.269 205.897 187.049 205.991 186.797 206.056C186.555 206.131 186.284 206.168 185.985 206.168ZM186.251 205.034C186.55 205.034 186.821 204.973 187.063 204.852C187.306 204.731 187.511 204.567 187.679 204.362C187.857 204.147 187.987 203.909 188.071 203.648C188.165 203.377 188.216 203.102 188.225 202.822V202.78H186.559C186.158 202.78 185.831 202.831 185.579 202.934C185.337 203.027 185.159 203.158 185.047 203.326C184.935 203.494 184.879 203.69 184.879 203.914C184.879 204.147 184.931 204.348 185.033 204.516C185.145 204.675 185.304 204.801 185.509 204.894C185.715 204.987 185.962 205.034 186.251 205.034ZM194.17 206.168C193.573 206.168 193.05 206.07 192.602 205.874C192.154 205.678 191.8 205.403 191.538 205.048C191.277 204.693 191.118 204.278 191.062 203.802H192.49C192.537 204.026 192.626 204.231 192.756 204.418C192.896 204.605 193.083 204.754 193.316 204.866C193.559 204.978 193.844 205.034 194.17 205.034C194.478 205.034 194.73 204.992 194.926 204.908C195.132 204.815 195.281 204.693 195.374 204.544C195.468 204.385 195.514 204.217 195.514 204.04C195.514 203.779 195.449 203.583 195.318 203.452C195.197 203.312 195.01 203.205 194.758 203.13C194.516 203.046 194.222 202.971 193.876 202.906C193.55 202.85 193.232 202.775 192.924 202.682C192.626 202.579 192.355 202.453 192.112 202.304C191.879 202.155 191.692 201.968 191.552 201.744C191.412 201.511 191.342 201.226 191.342 200.89C191.342 200.489 191.45 200.129 191.664 199.812C191.879 199.485 192.182 199.233 192.574 199.056C192.976 198.869 193.447 198.776 193.988 198.776C194.772 198.776 195.402 198.963 195.878 199.336C196.354 199.709 196.634 200.237 196.718 200.918H195.36C195.323 200.601 195.183 200.358 194.94 200.19C194.698 200.013 194.376 199.924 193.974 199.924C193.573 199.924 193.265 200.003 193.05 200.162C192.836 200.321 192.728 200.531 192.728 200.792C192.728 200.96 192.789 201.109 192.91 201.24C193.032 201.371 193.209 201.483 193.442 201.576C193.685 201.66 193.979 201.739 194.324 201.814C194.819 201.907 195.262 202.024 195.654 202.164C196.046 202.304 196.359 202.509 196.592 202.78C196.826 203.051 196.942 203.438 196.942 203.942C196.952 204.381 196.84 204.768 196.606 205.104C196.382 205.44 196.06 205.701 195.64 205.888C195.23 206.075 194.74 206.168 194.17 206.168ZM201.216 206C200.768 206 200.38 205.93 200.054 205.79C199.727 205.65 199.475 205.417 199.298 205.09C199.12 204.763 199.032 204.32 199.032 203.76V200.134H197.814V198.944H199.032L199.2 197.18H200.432V198.944H202.434V200.134H200.432V203.774C200.432 204.175 200.516 204.451 200.684 204.6C200.852 204.74 201.141 204.81 201.552 204.81H202.364V206H201.216ZM208.987 206L206.915 198.944H208.301L209.841 204.824L209.575 204.81L211.283 198.944H212.851L214.559 204.81L214.293 204.824L215.819 198.944H217.233L215.161 206H213.719L211.927 199.882H212.207L210.415 206H208.987ZM221.443 206.168C220.771 206.168 220.173 206.014 219.651 205.706C219.128 205.398 218.717 204.969 218.419 204.418C218.129 203.867 217.985 203.228 217.985 202.5C217.985 201.753 218.129 201.105 218.419 200.554C218.717 199.994 219.128 199.56 219.651 199.252C220.173 198.935 220.78 198.776 221.471 198.776C222.161 198.776 222.754 198.93 223.249 199.238C223.743 199.546 224.126 199.957 224.397 200.47C224.667 200.974 224.803 201.534 224.803 202.15C224.803 202.243 224.798 202.346 224.789 202.458C224.789 202.561 224.784 202.677 224.775 202.808H219.007V201.814H223.403C223.375 201.226 223.179 200.769 222.815 200.442C222.451 200.106 221.998 199.938 221.457 199.938C221.074 199.938 220.724 200.027 220.407 200.204C220.089 200.372 219.833 200.624 219.637 200.96C219.45 201.287 219.357 201.702 219.357 202.206V202.598C219.357 203.121 219.45 203.564 219.637 203.928C219.833 204.283 220.089 204.553 220.407 204.74C220.724 204.917 221.069 205.006 221.443 205.006C221.891 205.006 222.259 204.908 222.549 204.712C222.838 204.516 223.053 204.25 223.193 203.914H224.593C224.471 204.343 224.266 204.731 223.977 205.076C223.687 205.412 223.328 205.678 222.899 205.874C222.479 206.07 221.993 206.168 221.443 206.168ZM229.55 206.168C228.878 206.168 228.281 206.014 227.758 205.706C227.236 205.398 226.825 204.969 226.526 204.418C226.237 203.867 226.092 203.228 226.092 202.5C226.092 201.753 226.237 201.105 226.526 200.554C226.825 199.994 227.236 199.56 227.758 199.252C228.281 198.935 228.888 198.776 229.578 198.776C230.269 198.776 230.862 198.93 231.356 199.238C231.851 199.546 232.234 199.957 232.504 200.47C232.775 200.974 232.91 201.534 232.91 202.15C232.91 202.243 232.906 202.346 232.896 202.458C232.896 202.561 232.892 202.677 232.882 202.808H227.114V201.814H231.51C231.482 201.226 231.286 200.769 230.922 200.442C230.558 200.106 230.106 199.938 229.564 199.938C229.182 199.938 228.832 200.027 228.514 200.204C228.197 200.372 227.94 200.624 227.744 200.96C227.558 201.287 227.464 201.702 227.464 202.206V202.598C227.464 203.121 227.558 203.564 227.744 203.928C227.94 204.283 228.197 204.553 228.514 204.74C228.832 204.917 229.177 205.006 229.55 205.006C229.998 205.006 230.367 204.908 230.656 204.712C230.946 204.516 231.16 204.25 231.3 203.914H232.7C232.579 204.343 232.374 204.731 232.084 205.076C231.795 205.412 231.436 205.678 231.006 205.874C230.586 206.07 230.101 206.168 229.55 206.168ZM238.904 206L235.656 202.136L238.596 198.944H240.29L236.79 202.682V201.632L240.668 206H238.904ZM234.466 206V195.92H235.866V206H234.466ZM242.408 206.07C242.138 206.07 241.914 205.986 241.736 205.818C241.568 205.641 241.484 205.431 241.484 205.188C241.484 204.936 241.568 204.726 241.736 204.558C241.914 204.381 242.138 204.292 242.408 204.292C242.679 204.292 242.898 204.381 243.066 204.558C243.234 204.726 243.318 204.936 243.318 205.188C243.318 205.431 243.234 205.641 243.066 205.818C242.898 205.986 242.679 206.07 242.408 206.07Z" fill="#1E293B"/>
<path d="M63.0489 206V198.37L61.3129 198.832V197.32L63.8609 196.2H65.0089V206H63.0489ZM66.6785 206V204.614C67.2758 204.138 67.8545 203.662 68.4145 203.186C68.9838 202.71 69.4925 202.239 69.9405 201.772C70.3885 201.296 70.7432 200.834 71.0045 200.386C71.2658 199.938 71.3965 199.504 71.3965 199.084C71.3965 198.823 71.3498 198.585 71.2565 198.37C71.1632 198.146 71.0138 197.969 70.8085 197.838C70.6125 197.698 70.3512 197.628 70.0245 197.628C69.6978 197.628 69.4225 197.703 69.1985 197.852C68.9745 198.001 68.8065 198.202 68.6945 198.454C68.5825 198.697 68.5265 198.972 68.5265 199.28H66.6925C66.7205 198.561 66.8838 197.959 67.1825 197.474C67.4812 196.989 67.8825 196.629 68.3865 196.396C68.8905 196.153 69.4552 196.032 70.0805 196.032C70.7712 196.032 71.3545 196.163 71.8305 196.424C72.3065 196.676 72.6658 197.021 72.9085 197.46C73.1605 197.899 73.2865 198.403 73.2865 198.972C73.2865 199.401 73.2072 199.821 73.0485 200.232C72.8992 200.643 72.6845 201.044 72.4045 201.436C72.1338 201.819 71.8258 202.187 71.4805 202.542C71.1352 202.897 70.7758 203.237 70.4025 203.564C70.0292 203.881 69.6652 204.18 69.3105 204.46H73.5245V206H66.6785ZM76.6766 206L82.1786 196.2H84.0126L78.5106 206H76.6766ZM83.6766 206.168C83.2193 206.168 82.8039 206.07 82.4306 205.874C82.0666 205.669 81.7773 205.379 81.5626 205.006C81.3479 204.623 81.2406 204.175 81.2406 203.662C81.2406 203.139 81.3479 202.691 81.5626 202.318C81.7773 201.945 82.0666 201.66 82.4306 201.464C82.8039 201.259 83.2193 201.156 83.6766 201.156C84.1339 201.156 84.5446 201.259 84.9086 201.464C85.2726 201.66 85.5619 201.945 85.7766 202.318C85.9913 202.691 86.0986 203.139 86.0986 203.662C86.0986 204.175 85.9913 204.623 85.7766 205.006C85.5619 205.379 85.2726 205.669 84.9086 205.874C84.5446 206.07 84.1339 206.168 83.6766 206.168ZM83.6626 204.866C83.8493 204.866 84.0126 204.819 84.1526 204.726C84.2926 204.633 84.4046 204.497 84.4886 204.32C84.5726 204.143 84.6146 203.923 84.6146 203.662C84.6146 203.391 84.5726 203.167 84.4886 202.99C84.4139 202.803 84.3019 202.663 84.1526 202.57C84.0126 202.477 83.8493 202.43 83.6626 202.43C83.4853 202.43 83.3219 202.477 83.1726 202.57C83.0326 202.663 82.9206 202.803 82.8366 202.99C82.7526 203.167 82.7106 203.391 82.7106 203.662C82.7106 203.923 82.7526 204.143 82.8366 204.32C82.9206 204.497 83.0326 204.633 83.1726 204.726C83.3219 204.819 83.4853 204.866 83.6626 204.866ZM77.0826 201.058C76.6346 201.058 76.2239 200.955 75.8506 200.75C75.4866 200.545 75.1926 200.255 74.9686 199.882C74.7539 199.509 74.6466 199.065 74.6466 198.552C74.6466 198.02 74.7539 197.572 74.9686 197.208C75.1926 196.835 75.4866 196.545 75.8506 196.34C76.2239 196.135 76.6393 196.032 77.0966 196.032C77.5539 196.032 77.9599 196.135 78.3146 196.34C78.6786 196.545 78.9679 196.835 79.1826 197.208C79.4066 197.572 79.5186 198.02 79.5186 198.552C79.5186 199.065 79.4066 199.509 79.1826 199.882C78.9679 200.255 78.6786 200.545 78.3146 200.75C77.9506 200.955 77.5399 201.058 77.0826 201.058ZM77.0826 199.756C77.2599 199.756 77.4186 199.709 77.5586 199.616C77.7079 199.523 77.8246 199.387 77.9086 199.21C77.9926 199.033 78.0346 198.813 78.0346 198.552C78.0346 198.272 77.9926 198.043 77.9086 197.866C77.8246 197.689 77.7079 197.553 77.5586 197.46C77.4186 197.367 77.2599 197.32 77.0826 197.32C76.9053 197.32 76.7419 197.367 76.5926 197.46C76.4526 197.553 76.3406 197.693 76.2566 197.88C76.1726 198.057 76.1306 198.281 76.1306 198.552C76.1306 198.813 76.1726 199.033 76.2566 199.21C76.3406 199.387 76.4526 199.523 76.5926 199.616C76.7419 199.709 76.9053 199.756 77.0826 199.756Z" fill="#FF914D"/>
<defs>
<filter id="filter0_dd_95_467" x="52.8" y="22" width="255.2" height="90" filterUnits="userSpaceOnUse" color-interpolation-filters="sRGB">
<feFlood flood-opacity="0" result="BackgroundImageFix"/>
<feColorMatrix in="SourceAlpha" type="matrix" values="0 0 0 0 0 0 0 0 0 0 0 0 0 0 0 0 0 0 127 0" result="hardAlpha"/>
<feMorphology radius="2" operator="erode" in="SourceAlpha" result="effect1_dropShadow_95_467"/>
<feOffset dy="4"/>
<feGaussianBlur stdDeviation="3"/>
<feComposite in2="hardAlpha" operator="out"/>
<feColorMatrix type="matrix" values="0 0 0 0 0 0 0 0 0 0 0 0 0 0 0 0 0 0 0.02 0"/>
<feBlend mode="normal" in2="BackgroundImageFix" result="effect1_dropShadow_95_467"/>
<feColorMatrix in="SourceAlpha" type="matrix" values="0 0 0 0 0 0 0 0 0 0 0 0 0 0 0 0 0 0 127 0" result="hardAlpha"/>
<feMorphology radius="3" operator="erode" in="SourceAlpha" result="effect2_dropShadow_95_467"/>
<feOffset dy="10"/>
<feGaussianBlur stdDeviation="7.5"/>
<feComposite in2="hardAlpha" operator="out"/>
<feColorMatrix type="matrix" values="0 0 0 0 0 0 0 0 0 0 0 0 0 0 0 0 0 0 0.05 0"/>
<feBlend mode="normal" in2="effect1_dropShadow_95_467" result="effect2_dropShadow_95_467"/>
<feBlend mode="normal" in="SourceGraphic" in2="effect2_dropShadow_95_467" result="shape"/>
</filter>
<filter id="filter1_d_95_467" x="9" y="99" width="62" height="62" filterUnits="userSpaceOnUse" color-interpolation-filters="sRGB">
<feFlood flood-opacity="0" result="BackgroundImageFix"/>
<feColorMatrix in="SourceAlpha" type="matrix" values="0 0 0 0 0 0 0 0 0 0 0 0 0 0 0 0 0 0 127 0" result="hardAlpha"/>
<feOffset/>
<feGaussianBlur stdDeviation="7.5"/>
<feComposite in2="hardAlpha" operator="out"/>
<feColorMatrix type="matrix" values="0 0 0 0 1 0 0 0 0 0.568627 0 0 0 0 0.301961 0 0 0 0.2 0"/>
<feBlend mode="normal" in2="BackgroundImageFix" result="effect1_dropShadow_95_467"/>
<feBlend mode="normal" in="SourceGraphic" in2="effect1_dropShadow_95_467" result="shape"/>
</filter>
<filter id="filter2_dd_95_467" x="12" y="152" width="268.8" height="96" filterUnits="userSpaceOnUse" color-interpolation-filters="sRGB">
<feFlood flood-opacity="0" result="BackgroundImageFix"/>
<feColorMatrix in="SourceAlpha" type="matrix" values="0 0 0 0 0 0 0 0 0 0 0 0 0 0 0 0 0 0 127 0" result="hardAlpha"/>
<feMorphology radius="2" operator="erode" in="SourceAlpha" result="effect1_dropShadow_95_467"/>
<feOffset dy="4"/>
<feGaussianBlur stdDeviation="3"/>
<feComposite in2="hardAlpha" operator="out"/>
<feColorMatrix type="matrix" values="0 0 0 0 0 0 0 0 0 0 0 0 0 0 0 0 0 0 0.02 0"/>
<feBlend mode="normal" in2="BackgroundImageFix" result="effect1_dropShadow_95_467"/>
<feColorMatrix in="SourceAlpha" type="matrix" values="0 0 0 0 0 0 0 0 0 0 0 0 0 0 0 0 0 0 127 0" result="hardAlpha"/>
<feMorphology radius="3" operator="erode" in="SourceAlpha" result="effect2_dropShadow_95_467"/>
<feOffset dy="10"/>
<feGaussianBlur stdDeviation="7.5"/>
<feComposite in2="hardAlpha" operator="out"/>
<feColorMatrix type="matrix" values="0 0 0 0 0 0 0 0 0 0 0 0 0 0 0 0 0 0 0.05 0"/>
<feBlend mode="normal" in2="effect1_dropShadow_95_467" result="effect2_dropShadow_95_467"/>
<feBlend mode="normal" in="SourceGraphic" in2="effect2_dropShadow_95_467" result="shape"/>
</filter>
</defs>
</svg>
