<svg width="365" height="406" viewBox="0 0 365 406" fill="none" xmlns="http://www.w3.org/2000/svg">
<g filter="url(#filter0_d_22_962)">
<rect x="2" y="1" width="361" height="402" rx="12" fill="#F8F6F5" shape-rendering="crispEdges"/>
<rect x="2.5" y="1.5" width="360" height="401" rx="11.5" stroke="#FF914D" stroke-opacity="0.1" shape-rendering="crispEdges"/>
<path d="M27.1211 28.5556C26.6582 28.5556 26.2647 28.3935 25.9406 28.0695C25.6165 27.7454 25.4545 27.3519 25.4545 26.8889C25.4545 26.4259 25.6165 26.0324 25.9406 25.7083C26.2647 25.3843 26.6582 25.2222 27.1211 25.2222C27.5841 25.2222 27.9776 25.3843 28.3017 25.7083C28.6258 26.0324 28.7878 26.4259 28.7878 26.8889C28.7878 27.3519 28.6258 27.7454 28.3017 28.0695C27.9776 28.3935 27.5841 28.5556 27.1211 28.5556ZM23.2323 30.2222C22.9267 30.2222 22.6651 30.1134 22.4475 29.8958C22.2299 29.6783 22.1211 29.4167 22.1211 29.1111V24.6667C22.1211 24.3611 22.2299 24.0996 22.4475 23.882C22.6651 23.6644 22.9267 23.5556 23.2323 23.5556H31.01C31.3156 23.5556 31.5772 23.6644 31.7948 23.882C32.0124 24.0996 32.1211 24.3611 32.1211 24.6667V29.1111C32.1211 29.4167 32.0124 29.6783 31.7948 29.8958C31.5772 30.1134 31.3156 30.2222 31.01 30.2222H23.2323ZM24.3434 29.1111H29.8989C29.8989 28.8056 30.0077 28.544 30.2253 28.3264C30.4429 28.1088 30.7045 28 31.01 28V25.7778C30.7045 25.7778 30.4429 25.669 30.2253 25.4514C30.0077 25.2338 29.8989 24.9722 29.8989 24.6667H24.3434C24.3434 24.9722 24.2346 25.2338 24.017 25.4514C23.7994 25.669 23.5378 25.7778 23.2323 25.7778V28C23.5378 28 23.7994 28.1088 24.017 28.3264C24.2346 28.544 24.3434 28.8056 24.3434 29.1111ZM30.4545 32.4445H21.01C20.7045 32.4445 20.4429 32.3357 20.2253 32.1181C20.0077 31.9005 19.8989 31.6389 19.8989 31.3333V25.2222H21.01V31.3333H30.4545V32.4445Z" fill="#FF914D"/>
<path d="M41.908 32V23.6H44.752C45.416 23.6 45.96 23.712 46.384 23.936C46.808 24.16 47.12 24.46 47.32 24.836C47.528 25.204 47.632 25.624 47.632 26.096C47.632 26.544 47.528 26.96 47.32 27.344C47.12 27.72 46.804 28.024 46.372 28.256C45.94 28.48 45.388 28.592 44.716 28.592H43.108V32H41.908ZM46.324 32L44.512 28.268H45.832L47.716 32H46.324ZM43.108 27.68H44.68C45.272 27.68 45.704 27.536 45.976 27.248C46.256 26.952 46.396 26.576 46.396 26.12C46.396 25.656 46.26 25.288 45.988 25.016C45.716 24.744 45.276 24.608 44.668 24.608H43.108V27.68ZM49.8088 32V23.6H55.1128V24.584H51.0088V27.272H54.7528V28.232H51.0088V31.016H55.1128V32H49.8088ZM59.7717 32L56.6397 23.6H57.9357L60.4917 30.752L63.0597 23.6H64.3317L61.1997 32H59.7717ZM66.0557 32V23.6H71.3597V24.584H67.2557V27.272H70.9997V28.232H67.2557V31.016H71.3597V32H66.0557ZM73.5346 32V23.6H74.7346L79.0186 30.044V23.6H80.2186V32H79.0186L74.7346 25.556V32H73.5346ZM85.6795 32.144C85.0875 32.144 84.5515 32.028 84.0715 31.796C83.5915 31.556 83.2075 31.196 82.9195 30.716C82.6395 30.228 82.4995 29.608 82.4995 28.856V23.6H83.6995V28.868C83.6995 29.372 83.7835 29.788 83.9515 30.116C84.1195 30.436 84.3515 30.676 84.6475 30.836C84.9515 30.988 85.3035 31.064 85.7035 31.064C86.1115 31.064 86.4595 30.988 86.7475 30.836C87.0435 30.676 87.2715 30.436 87.4315 30.116C87.5995 29.788 87.6835 29.372 87.6835 28.868V23.6H88.8835V28.856C88.8835 29.608 88.7395 30.228 88.4515 30.716C88.1635 31.196 87.7755 31.556 87.2875 31.796C86.8075 32.028 86.2715 32.144 85.6795 32.144ZM91.1643 32V23.6H96.4683V24.584H92.3643V27.272H96.1083V28.232H92.3643V31.016H96.4683V32H91.1643Z" fill="#475569"/>
<path d="M25.192 73.4V70.52H28.456V73.4H25.192ZM25.192 54.224V51.344H28.456V54.224H25.192ZM26.848 71.36C25.608 71.36 24.5 71.132 23.524 70.676C22.548 70.212 21.752 69.56 21.136 68.72C20.52 67.872 20.128 66.872 19.96 65.72L23.2 65.216C23.416 66.16 23.868 66.912 24.556 67.472C25.252 68.032 26.08 68.312 27.04 68.312C27.944 68.312 28.692 68.1 29.284 67.676C29.884 67.252 30.184 66.728 30.184 66.104C30.184 65.68 30.052 65.332 29.788 65.06C29.532 64.78 29.128 64.552 28.576 64.376L24.304 63.056C21.84 62.296 20.608 60.792 20.608 58.544C20.608 57.488 20.856 56.572 21.352 55.796C21.856 55.02 22.564 54.424 23.476 54.008C24.396 53.584 25.48 53.376 26.728 53.384C27.872 53.4 28.888 53.608 29.776 54.008C30.664 54.4 31.404 54.972 31.996 55.724C32.596 56.468 33.032 57.376 33.304 58.448L29.944 59.048C29.832 58.536 29.624 58.088 29.32 57.704C29.016 57.312 28.636 57.008 28.18 56.792C27.732 56.568 27.232 56.448 26.68 56.432C26.152 56.416 25.672 56.492 25.24 56.66C24.816 56.828 24.476 57.064 24.22 57.368C23.972 57.664 23.848 58 23.848 58.376C23.848 58.792 24.024 59.152 24.376 59.456C24.728 59.752 25.288 60.008 26.056 60.224L29.104 61.088C30.632 61.528 31.732 62.124 32.404 62.876C33.084 63.628 33.424 64.624 33.424 65.864C33.424 66.952 33.148 67.908 32.596 68.732C32.044 69.556 31.272 70.2 30.28 70.664C29.296 71.128 28.152 71.36 26.848 71.36ZM39.055 71V57.272L35.815 59.264V55.664L39.055 53.72H42.391V71H39.055ZM46.4734 70.976V68.144L53.7214 61.712C54.2654 61.232 54.6494 60.78 54.8734 60.356C55.0974 59.932 55.2094 59.536 55.2094 59.168C55.2094 58.64 55.1014 58.172 54.8854 57.764C54.6694 57.348 54.3654 57.024 53.9734 56.792C53.5814 56.552 53.1214 56.432 52.5934 56.432C52.0414 56.432 51.5534 56.56 51.1294 56.816C50.7134 57.064 50.3894 57.396 50.1574 57.812C49.9254 58.22 49.8174 58.664 49.8334 59.144H46.4734C46.4734 57.96 46.7334 56.936 47.2534 56.072C47.7734 55.208 48.4974 54.54 49.4254 54.068C50.3534 53.596 51.4334 53.36 52.6654 53.36C53.7934 53.36 54.8014 53.608 55.6894 54.104C56.5854 54.592 57.2894 55.276 57.8014 56.156C58.3134 57.036 58.5694 58.056 58.5694 59.216C58.5694 60.072 58.4494 60.784 58.2094 61.352C57.9694 61.912 57.6134 62.432 57.1414 62.912C56.6694 63.384 56.0894 63.92 55.4014 64.52L50.7214 68.624L50.4574 67.904H58.5694V70.976H46.4734ZM61.1978 74.24L61.3898 72.872C61.7738 72.904 62.0858 72.84 62.3258 72.68C62.5658 72.528 62.7298 72.304 62.8178 72.008C62.9138 71.72 62.9338 71.384 62.8778 71H61.1978V67.736H64.4618V71C64.4618 72.152 64.1938 73.024 63.6578 73.616C63.1218 74.208 62.3018 74.416 61.1978 74.24ZM76.0636 71V68.312H68.5516V65.264L73.9996 53.72H77.7436L72.2956 65.264H76.0636V60.944H79.3756V65.264H80.9116V68.312H79.3756V71H76.0636ZM88.9332 71.36C88.0612 71.36 87.2412 71.18 86.4732 70.82C85.7132 70.46 85.0572 69.96 84.5052 69.32C83.9532 68.68 83.5572 67.936 83.3172 67.088L86.4612 66.248C86.5652 66.656 86.7492 67.008 87.0132 67.304C87.2852 67.6 87.5972 67.832 87.9492 68C88.3092 68.16 88.6772 68.24 89.0532 68.24C89.5492 68.24 90.0012 68.12 90.4092 67.88C90.8252 67.64 91.1532 67.316 91.3932 66.908C91.6412 66.5 91.7652 66.048 91.7652 65.552C91.7652 65.056 91.6412 64.604 91.3932 64.196C91.1532 63.788 90.8252 63.464 90.4092 63.224C90.0012 62.984 89.5492 62.864 89.0532 62.864C88.4452 62.864 87.9492 62.968 87.5652 63.176C87.1812 63.376 86.8932 63.568 86.7012 63.752L83.9412 62.912L84.4692 53.72H93.9012V56.768H86.2692L87.4212 55.688L87.0612 61.616L86.5092 60.944C86.9412 60.592 87.4332 60.336 87.9852 60.176C88.5372 60.016 89.0532 59.936 89.5332 59.936C90.6212 59.936 91.5772 60.18 92.4012 60.668C93.2332 61.148 93.8812 61.812 94.3452 62.66C94.8172 63.5 95.0532 64.464 95.0532 65.552C95.0532 66.64 94.7692 67.624 94.2012 68.504C93.6332 69.376 92.8852 70.072 91.9572 70.592C91.0292 71.104 90.0212 71.36 88.9332 71.36ZM104.338 71.36C103.058 71.36 101.938 71.092 100.978 70.556C100.018 70.02 99.27 69.272 98.734 68.312C98.198 67.352 97.93 66.232 97.93 64.952V59.768C97.93 58.488 98.198 57.368 98.734 56.408C99.27 55.448 100.018 54.7 100.978 54.164C101.938 53.628 103.058 53.36 104.338 53.36C105.618 53.36 106.738 53.628 107.698 54.164C108.658 54.7 109.406 55.448 109.942 56.408C110.478 57.368 110.746 58.488 110.746 59.768V64.952C110.746 66.232 110.478 67.352 109.942 68.312C109.406 69.272 108.658 70.02 107.698 70.556C106.738 71.092 105.618 71.36 104.338 71.36ZM104.338 68.264C104.914 68.264 105.434 68.128 105.898 67.856C106.362 67.584 106.73 67.216 107.002 66.752C107.274 66.288 107.41 65.768 107.41 65.192V59.504C107.41 58.928 107.274 58.408 107.002 57.944C106.73 57.48 106.362 57.112 105.898 56.84C105.434 56.568 104.914 56.432 104.338 56.432C103.762 56.432 103.242 56.568 102.778 56.84C102.314 57.112 101.946 57.48 101.674 57.944C101.402 58.408 101.266 58.928 101.266 59.504V65.192C101.266 65.768 101.402 66.288 101.674 66.752C101.946 67.216 102.314 67.584 102.778 67.856C103.242 68.128 103.762 68.264 104.338 68.264Z" fill="#0F172A"/>
<path d="M123.784 70.268V64.796H125.164V70.268H123.784ZM121.54 68.204V66.848H127.396V68.204H121.54ZM129.965 71V64.46L128.357 64.952V63.608L130.649 62.6H131.645V71H129.965ZM133.108 71V69.812C133.628 69.404 134.132 68.996 134.62 68.588C135.108 68.18 135.544 67.776 135.928 67.376C136.32 66.968 136.628 66.572 136.852 66.188C137.084 65.804 137.2 65.432 137.2 65.072C137.2 64.848 137.156 64.644 137.068 64.46C136.988 64.268 136.86 64.116 136.684 64.004C136.508 63.884 136.276 63.824 135.988 63.824C135.708 63.824 135.468 63.888 135.268 64.016C135.076 64.144 134.928 64.316 134.824 64.532C134.728 64.74 134.68 64.976 134.68 65.24H133.12C133.136 64.624 133.272 64.108 133.528 63.692C133.792 63.276 134.14 62.968 134.572 62.768C135.012 62.56 135.5 62.456 136.036 62.456C136.628 62.456 137.128 62.568 137.536 62.792C137.952 63.008 138.268 63.304 138.484 63.68C138.708 64.056 138.82 64.488 138.82 64.976C138.82 65.344 138.748 65.704 138.604 66.056C138.468 66.408 138.28 66.752 138.04 67.088C137.808 67.416 137.544 67.732 137.248 68.036C136.952 68.34 136.64 68.632 136.312 68.912C135.984 69.184 135.668 69.44 135.364 69.68H139.012V71H133.108ZM141.856 71L146.56 62.6H148.144L143.428 71H141.856ZM147.928 71.144C147.536 71.144 147.18 71.06 146.86 70.892C146.548 70.716 146.3 70.468 146.116 70.148C145.932 69.82 145.84 69.436 145.84 68.996C145.84 68.548 145.932 68.164 146.116 67.844C146.3 67.524 146.548 67.28 146.86 67.112C147.18 66.936 147.536 66.848 147.928 66.848C148.32 66.848 148.672 66.936 148.984 67.112C149.296 67.28 149.544 67.524 149.728 67.844C149.912 68.164 150.004 68.548 150.004 68.996C150.004 69.436 149.912 69.82 149.728 70.148C149.544 70.468 149.296 70.716 148.984 70.892C148.672 71.06 148.32 71.144 147.928 71.144ZM147.916 70.028C148.076 70.028 148.216 69.988 148.336 69.908C148.456 69.828 148.552 69.712 148.624 69.56C148.696 69.408 148.732 69.22 148.732 68.996C148.732 68.764 148.696 68.572 148.624 68.42C148.56 68.26 148.464 68.14 148.336 68.06C148.216 67.98 148.076 67.94 147.916 67.94C147.764 67.94 147.624 67.98 147.496 68.06C147.376 68.14 147.28 68.26 147.208 68.42C147.136 68.572 147.1 68.764 147.1 68.996C147.1 69.22 147.136 69.408 147.208 69.56C147.28 69.712 147.376 69.828 147.496 69.908C147.624 69.988 147.764 70.028 147.916 70.028ZM142.132 66.764C141.74 66.764 141.384 66.676 141.064 66.5C140.752 66.324 140.5 66.076 140.308 65.756C140.124 65.436 140.032 65.056 140.032 64.616C140.032 64.16 140.124 63.776 140.308 63.464C140.5 63.144 140.752 62.896 141.064 62.72C141.384 62.544 141.74 62.456 142.132 62.456C142.524 62.456 142.876 62.544 143.188 62.72C143.5 62.896 143.748 63.144 143.932 63.464C144.116 63.776 144.208 64.16 144.208 64.616C144.208 65.056 144.116 65.436 143.932 65.756C143.748 66.076 143.5 66.324 143.188 66.5C142.876 66.676 142.524 66.764 142.132 66.764ZM142.12 65.648C142.28 65.648 142.42 65.608 142.54 65.528C142.66 65.448 142.756 65.332 142.828 65.18C142.9 65.028 142.936 64.84 142.936 64.616C142.936 64.376 142.9 64.18 142.828 64.028C142.756 63.876 142.66 63.76 142.54 63.68C142.42 63.6 142.284 63.56 142.132 63.56C141.972 63.56 141.828 63.6 141.7 63.68C141.58 63.76 141.484 63.88 141.412 64.04C141.34 64.192 141.304 64.384 141.304 64.616C141.304 64.84 141.34 65.028 141.412 65.18C141.484 65.332 141.58 65.448 141.7 65.528C141.828 65.608 141.968 65.648 142.12 65.648Z" fill="#16A34A"/>
<g clip-path="url(#clip0_22_962)">
<path d="M19 152.133C31.5769 152.133 31.5769 105.2 44.1539 105.2C56.7307 105.2 56.7307 115.867 69.3077 115.867C81.8846 115.867 81.8846 143.6 94.4615 143.6C107.039 143.6 107.039 111.6 119.616 111.6C132.193 111.6 132.193 147.867 144.769 147.867C157.346 147.867 157.346 126.533 169.923 126.533C182.5 126.533 182.5 118 195.077 118C207.654 118 207.654 158.533 220.231 158.533C232.807 158.533 232.807 173.467 245.384 173.467C257.961 173.467 257.961 94.5333 270.538 94.5333C283.116 94.5333 283.116 137.2 295.693 137.2C308.269 137.2 308.269 162.8 320.846 162.8C333.423 162.8 333.423 107.333 346 107.333V173.467H245.384H19V152.133Z" fill="url(#paint0_linear_22_962)"/>
<path d="M19 152.133C31.5769 152.133 31.5769 105.2 44.1539 105.2C56.7307 105.2 56.7307 115.867 69.3077 115.867C81.8846 115.867 81.8846 143.6 94.4615 143.6C107.039 143.6 107.039 111.6 119.616 111.6C132.193 111.6 132.193 147.867 144.769 147.867C157.346 147.867 157.346 126.533 169.923 126.533C182.5 126.533 182.5 118 195.077 118C207.654 118 207.654 158.533 220.231 158.533C232.807 158.533 232.807 173.467 245.384 173.467C257.961 173.467 257.961 94.5333 270.539 94.5333C283.116 94.5333 283.116 137.2 295.693 137.2C308.269 137.2 308.269 162.8 320.846 162.8C333.423 162.8 333.423 107.333 346 107.333" stroke="#FF914D" stroke-width="2.35974" stroke-linecap="round"/>
</g>
<rect x="19.5" y="210.5" width="156.5" height="71" rx="7.5" fill="white"/>
<rect x="19.5" y="210.5" width="156.5" height="71" rx="7.5" stroke="#F1F5F9"/>
<path d="M34.34 231V225.09H32.29V224H37.72V225.09H35.68V231H34.34ZM37.0134 231L39.5734 224H41.1034L43.6534 231H42.2234L40.3234 225.54L38.4234 231H37.0134ZM38.1434 229.41L38.5034 228.36H42.0634L42.4134 229.41H38.1434ZM44.1226 231V224H46.9926C47.4792 224 47.8892 224.077 48.2226 224.23C48.5559 224.383 48.8059 224.597 48.9726 224.87C49.1459 225.137 49.2326 225.447 49.2326 225.8C49.2326 226.153 49.1559 226.45 49.0026 226.69C48.8492 226.93 48.6459 227.117 48.3926 227.25C48.1459 227.377 47.8759 227.45 47.5826 227.47L47.7326 227.36C48.0526 227.373 48.3359 227.46 48.5826 227.62C48.8359 227.773 49.0326 227.98 49.1726 228.24C49.3192 228.5 49.3926 228.783 49.3926 229.09C49.3926 229.463 49.3026 229.793 49.1226 230.08C48.9492 230.367 48.6892 230.593 48.3426 230.76C48.0026 230.92 47.5859 231 47.0926 231H44.1226ZM45.4726 229.9H46.8726C47.2392 229.9 47.5226 229.817 47.7226 229.65C47.9226 229.483 48.0226 229.243 48.0226 228.93C48.0226 228.617 47.9192 228.373 47.7126 228.2C47.5059 228.02 47.2192 227.93 46.8526 227.93H45.4726V229.9ZM45.4726 226.92H46.7726C47.1259 226.92 47.3959 226.84 47.5826 226.68C47.7692 226.52 47.8626 226.293 47.8626 226C47.8626 225.713 47.7692 225.49 47.5826 225.33C47.3959 225.163 47.1226 225.08 46.7626 225.08H45.4726V226.92ZM50.0581 231V224H51.4081V229.95H54.4781V231H50.0581ZM55.2222 231V224H59.8322V225.09H56.5722V226.92H59.5322V227.97H56.5722V229.91H59.8322V231H55.2222ZM64.1232 231V225.09H62.0732V224H67.5032V225.09H65.4632V231H64.1232ZM70.6988 231.12C70.1788 231.12 69.7088 231.017 69.2888 230.81C68.8688 230.603 68.5355 230.293 68.2888 229.88C68.0422 229.467 67.9188 228.94 67.9188 228.3V224H69.2688V228.31C69.2688 228.657 69.3255 228.95 69.4388 229.19C69.5588 229.423 69.7255 229.597 69.9388 229.71C70.1588 229.823 70.4188 229.88 70.7188 229.88C71.0255 229.88 71.2855 229.823 71.4988 229.71C71.7188 229.597 71.8855 229.423 71.9988 229.19C72.1122 228.95 72.1688 228.657 72.1688 228.31V224H73.5188V228.3C73.5188 228.94 73.3922 229.467 73.1388 229.88C72.8855 230.293 72.5422 230.603 72.1088 230.81C71.6822 231.017 71.2122 231.12 70.6988 231.12ZM74.3648 231V224H76.9848C77.5448 224 78.0081 224.097 78.3748 224.29C78.7481 224.483 79.0248 224.743 79.2048 225.07C79.3848 225.39 79.4748 225.747 79.4748 226.14C79.4748 226.513 79.3848 226.863 79.2048 227.19C79.0314 227.51 78.7581 227.77 78.3848 227.97C78.0181 228.163 77.5448 228.26 76.9648 228.26H75.7148V231H74.3648ZM77.9948 231L76.5548 227.92H78.0148L79.5348 231H77.9948ZM75.7148 227.28H76.8948C77.3081 227.28 77.6114 227.18 77.8048 226.98C77.9981 226.78 78.0948 226.517 78.0948 226.19C78.0948 225.863 77.9981 225.607 77.8048 225.42C77.6114 225.227 77.3081 225.13 76.8948 225.13H75.7148V227.28ZM80.2417 231V224H81.5917L84.8117 228.84V224H86.1617V231H84.8117L81.5917 226.17V231H80.2417ZM90.2145 231.12C89.5545 231.12 88.9745 230.967 88.4745 230.66C87.9745 230.353 87.5812 229.93 87.2945 229.39C87.0145 228.843 86.8745 228.213 86.8745 227.5C86.8745 226.787 87.0145 226.16 87.2945 225.62C87.5812 225.073 87.9745 224.647 88.4745 224.34C88.9745 224.033 89.5545 223.88 90.2145 223.88C90.8745 223.88 91.4545 224.033 91.9545 224.34C92.4612 224.647 92.8545 225.073 93.1345 225.62C93.4145 226.16 93.5545 226.787 93.5545 227.5C93.5545 228.213 93.4145 228.843 93.1345 229.39C92.8545 229.93 92.4612 230.353 91.9545 230.66C91.4545 230.967 90.8745 231.12 90.2145 231.12ZM90.2145 229.91C90.6145 229.91 90.9612 229.813 91.2545 229.62C91.5479 229.42 91.7745 229.14 91.9345 228.78C92.0945 228.42 92.1745 227.993 92.1745 227.5C92.1745 227 92.0945 226.573 91.9345 226.22C91.7745 225.86 91.5479 225.583 91.2545 225.39C90.9612 225.197 90.6145 225.1 90.2145 225.1C89.8145 225.1 89.4679 225.197 89.1745 225.39C88.8812 225.583 88.6512 225.86 88.4845 226.22C88.3245 226.573 88.2445 227 88.2445 227.5C88.2445 227.993 88.3245 228.42 88.4845 228.78C88.6512 229.14 88.8812 229.42 89.1745 229.62C89.4679 229.813 89.8145 229.91 90.2145 229.91ZM96.0071 231L93.4571 224H94.8971L96.8371 229.62L98.7771 224H100.207L97.6671 231H96.0071ZM100.607 231V224H105.217V225.09H101.957V226.92H104.917V227.97H101.957V229.91H105.217V231H100.607ZM106.005 231V224H108.625C109.185 224 109.649 224.097 110.015 224.29C110.389 224.483 110.665 224.743 110.845 225.07C111.025 225.39 111.115 225.747 111.115 226.14C111.115 226.513 111.025 226.863 110.845 227.19C110.672 227.51 110.399 227.77 110.025 227.97C109.659 228.163 109.185 228.26 108.605 228.26H107.355V231H106.005ZM109.635 231L108.195 227.92H109.655L111.175 231H109.635ZM107.355 227.28H108.535C108.949 227.28 109.252 227.18 109.445 226.98C109.639 226.78 109.735 226.517 109.735 226.19C109.735 225.863 109.639 225.607 109.445 225.42C109.252 225.227 108.949 225.13 108.535 225.13H107.355V227.28Z" fill="#64748B"/>
<path d="M35.51 258V247.407L33.08 248.892V246.498L35.51 245.04H37.724V258H35.51ZM40.7919 258V255.777H43.0149V258H40.7919ZM49.7417 258.27C49.0817 258.27 48.4667 258.135 47.8967 257.865C47.3267 257.589 46.8347 257.211 46.4207 256.731C46.0127 256.251 45.7187 255.693 45.5387 255.057L47.6267 254.499C47.7107 254.847 47.8637 255.147 48.0857 255.399C48.3137 255.651 48.5777 255.846 48.8777 255.984C49.1837 256.122 49.4987 256.191 49.8227 256.191C50.2427 256.191 50.6267 256.089 50.9747 255.885C51.3227 255.681 51.5987 255.408 51.8027 255.066C52.0067 254.718 52.1087 254.334 52.1087 253.914C52.1087 253.494 52.0037 253.113 51.7937 252.771C51.5897 252.423 51.3137 252.15 50.9657 251.952C50.6177 251.748 50.2367 251.646 49.8227 251.646C49.3247 251.646 48.9107 251.736 48.5807 251.916C48.2567 252.096 48.0077 252.288 47.8337 252.492L45.9797 251.898L46.3757 245.04H53.4137V247.074H47.5367L48.3467 246.309L48.0587 251.079L47.6627 250.593C47.9987 250.287 48.3887 250.059 48.8327 249.909C49.2767 249.759 49.7057 249.684 50.1197 249.684C50.9297 249.684 51.6467 249.87 52.2707 250.242C52.9007 250.608 53.3927 251.109 53.7467 251.745C54.1067 252.381 54.2867 253.104 54.2867 253.914C54.2867 254.724 54.0767 255.459 53.6567 256.119C53.2367 256.773 52.6817 257.295 51.9917 257.685C51.3077 258.075 50.5577 258.27 49.7417 258.27ZM63.1685 258V253.32C63.1685 253.014 63.1475 252.675 63.1055 252.303C63.0635 251.931 62.9645 251.574 62.8085 251.232C62.6585 250.884 62.4305 250.599 62.1245 250.377C61.8245 250.155 61.4165 250.044 60.9005 250.044C60.6245 250.044 60.3515 250.089 60.0815 250.179C59.8115 250.269 59.5655 250.425 59.3435 250.647C59.1275 250.863 58.9535 251.163 58.8215 251.547C58.6895 251.925 58.6235 252.411 58.6235 253.005L57.3365 252.456C57.3365 251.628 57.4955 250.878 57.8135 250.206C58.1375 249.534 58.6115 249 59.2355 248.604C59.8595 248.202 60.6275 248.001 61.5395 248.001C62.2595 248.001 62.8535 248.121 63.3215 248.361C63.7895 248.601 64.1615 248.907 64.4375 249.279C64.7135 249.651 64.9175 250.047 65.0495 250.467C65.1815 250.887 65.2655 251.286 65.3015 251.664C65.3435 252.036 65.3645 252.339 65.3645 252.573V258H63.1685ZM56.4275 258V245.04H58.3625V251.862H58.6235V258H56.4275Z" fill="#0F172A"/>
<rect x="188.5" y="210" width="157.5" height="72" rx="8" fill="#FF914D" fill-opacity="0.1"/>
<rect x="189" y="210.5" width="156.5" height="71" rx="7.5" stroke="#FF914D" stroke-opacity="0.2"/>
<path d="M210.913 227.542L210.305 226.205L208.968 225.597L210.305 224.99L210.913 223.653L211.52 224.99L212.857 225.597L211.52 226.205L210.913 227.542ZM210.913 234.347L210.305 233.01L208.968 232.403L210.305 231.795L210.913 230.458L211.52 231.795L212.857 232.403L211.52 233.01L210.913 234.347ZM206.052 232.889L204.836 230.215L202.163 229L204.836 227.785L206.052 225.111L207.267 227.785L209.94 229L207.267 230.215L206.052 232.889ZM206.052 230.531L206.538 229.486L207.583 229L206.538 228.514L206.052 227.469L205.565 228.514L204.52 229L205.565 229.486L206.052 230.531Z" fill="#FF914D"/>
<path d="M217.76 232L220.32 225H221.85L224.4 232H222.97L221.07 226.54L219.17 232H217.76ZM218.89 230.41L219.25 229.36H222.81L223.16 230.41H218.89ZM224.869 232V225H226.219V232H224.869ZM229.074 232V225H230.424V232H229.074ZM231.387 232V225H232.737L235.957 229.84V225H237.307V232H235.957L232.737 227.17V232H231.387ZM240.68 232.12C240.173 232.12 239.72 232.033 239.32 231.86C238.926 231.687 238.613 231.433 238.38 231.1C238.153 230.767 238.036 230.363 238.03 229.89H239.46C239.466 230.097 239.52 230.283 239.62 230.45C239.72 230.617 239.856 230.75 240.03 230.85C240.21 230.943 240.423 230.99 240.67 230.99C240.883 230.99 241.066 230.957 241.22 230.89C241.38 230.817 241.503 230.717 241.59 230.59C241.676 230.463 241.72 230.313 241.72 230.14C241.72 229.96 241.673 229.803 241.58 229.67C241.493 229.537 241.37 229.423 241.21 229.33C241.05 229.23 240.86 229.14 240.64 229.06C240.426 228.98 240.196 228.9 239.95 228.82C239.363 228.64 238.923 228.397 238.63 228.09C238.336 227.783 238.19 227.383 238.19 226.89C238.19 226.47 238.29 226.11 238.49 225.81C238.69 225.51 238.97 225.28 239.33 225.12C239.69 224.96 240.1 224.88 240.56 224.88C241.033 224.88 241.446 224.963 241.8 225.13C242.16 225.29 242.443 225.523 242.65 225.83C242.863 226.137 242.976 226.497 242.99 226.91H241.54C241.533 226.757 241.486 226.613 241.4 226.48C241.32 226.34 241.206 226.23 241.06 226.15C240.913 226.063 240.74 226.02 240.54 226.02C240.366 226.013 240.206 226.04 240.06 226.1C239.92 226.16 239.81 226.25 239.73 226.37C239.65 226.483 239.61 226.627 239.61 226.8C239.61 226.967 239.65 227.107 239.73 227.22C239.81 227.333 239.923 227.433 240.07 227.52C240.216 227.6 240.39 227.677 240.59 227.75C240.79 227.817 241.006 227.887 241.24 227.96C241.593 228.08 241.913 228.223 242.2 228.39C242.493 228.55 242.726 228.76 242.9 229.02C243.073 229.28 243.16 229.623 243.16 230.05C243.16 230.417 243.063 230.757 242.87 231.07C242.683 231.383 242.406 231.637 242.04 231.83C241.673 232.023 241.22 232.12 240.68 232.12ZM243.893 232V225H245.243V232H243.893ZM249.255 232.12C248.595 232.12 248.015 231.973 247.515 231.68C247.022 231.38 246.638 230.963 246.365 230.43C246.092 229.89 245.955 229.263 245.955 228.55C245.955 227.83 246.095 227.197 246.375 226.65C246.662 226.097 247.068 225.663 247.595 225.35C248.122 225.037 248.748 224.88 249.475 224.88C250.302 224.88 250.985 225.077 251.525 225.47C252.072 225.863 252.422 226.41 252.575 227.11H251.075C250.975 226.803 250.788 226.563 250.515 226.39C250.248 226.21 249.898 226.12 249.465 226.12C249.012 226.12 248.625 226.22 248.305 226.42C247.985 226.62 247.742 226.9 247.575 227.26C247.408 227.62 247.325 228.05 247.325 228.55C247.325 229.057 247.408 229.487 247.575 229.84C247.748 230.193 247.988 230.463 248.295 230.65C248.602 230.83 248.968 230.92 249.395 230.92C250.008 230.92 250.472 230.757 250.785 230.43C251.098 230.097 251.288 229.667 251.355 229.14H249.625V228.13H252.705V232H251.465L251.355 231.11C251.208 231.33 251.038 231.517 250.845 231.67C250.652 231.817 250.425 231.927 250.165 232C249.905 232.08 249.602 232.12 249.255 232.12ZM257.957 232V225H259.307V232H257.957ZM253.547 232V225H254.897V232H253.547ZM254.717 228.97V227.88H258.187V228.97H254.717ZM261.874 232V226.09H259.824V225H265.254V226.09H263.214V232H261.874Z" fill="#FF914D"/>
<path d="M206.144 251.144C205.336 251.144 204.624 250.96 204.008 250.592C203.4 250.224 202.924 249.716 202.58 249.068C202.236 248.412 202.064 247.656 202.064 246.8C202.064 245.944 202.236 245.192 202.58 244.544C202.924 243.888 203.4 243.376 204.008 243.008C204.624 242.64 205.336 242.456 206.144 242.456C206.952 242.456 207.66 242.64 208.268 243.008C208.884 243.376 209.364 243.888 209.708 244.544C210.052 245.192 210.224 245.944 210.224 246.8C210.224 247.656 210.052 248.412 209.708 249.068C209.364 249.716 208.884 250.224 208.268 250.592C207.66 250.96 206.952 251.144 206.144 251.144ZM206.144 249.692C206.64 249.692 207.068 249.576 207.428 249.344C207.796 249.104 208.076 248.768 208.268 248.336C208.468 247.904 208.568 247.392 208.568 246.8C208.568 246.2 208.468 245.688 208.268 245.264C208.076 244.832 207.796 244.5 207.428 244.268C207.068 244.036 206.64 243.92 206.144 243.92C205.656 243.92 205.228 244.036 204.86 244.268C204.492 244.5 204.208 244.832 204.008 245.264C203.808 245.688 203.708 246.2 203.708 246.8C203.708 247.392 203.808 247.904 204.008 248.336C204.208 248.768 204.492 249.104 204.86 249.344C205.228 249.576 205.656 249.692 206.144 249.692ZM211.597 253.64V244.844H213.037L213.217 245.684C213.345 245.5 213.497 245.336 213.673 245.192C213.849 245.04 214.057 244.92 214.297 244.832C214.545 244.744 214.829 244.7 215.149 244.7C215.725 244.7 216.225 244.844 216.649 245.132C217.081 245.412 217.417 245.796 217.657 246.284C217.905 246.764 218.029 247.316 218.029 247.94C218.029 248.556 217.901 249.108 217.645 249.596C217.397 250.076 217.057 250.456 216.625 250.736C216.201 251.008 215.717 251.144 215.173 251.144C214.725 251.144 214.337 251.064 214.009 250.904C213.689 250.736 213.425 250.508 213.217 250.22V253.64H211.597ZM214.777 249.728C215.089 249.728 215.365 249.656 215.605 249.512C215.845 249.36 216.033 249.148 216.169 248.876C216.305 248.604 216.373 248.288 216.373 247.928C216.373 247.568 216.305 247.252 216.169 246.98C216.033 246.708 215.845 246.496 215.605 246.344C215.365 246.192 215.089 246.116 214.777 246.116C214.465 246.116 214.185 246.192 213.937 246.344C213.697 246.496 213.509 246.708 213.373 246.98C213.245 247.252 213.181 247.568 213.181 247.928C213.181 248.288 213.245 248.604 213.373 248.876C213.509 249.148 213.697 249.36 213.937 249.512C214.185 249.656 214.465 249.728 214.777 249.728ZM221.974 251C221.55 251 221.178 250.936 220.858 250.808C220.546 250.672 220.302 250.452 220.126 250.148C219.95 249.836 219.862 249.412 219.862 248.876V246.2H218.806V244.844H219.862L220.042 243.152H221.482V244.844H223.09V246.2H221.482V248.9C221.482 249.172 221.542 249.36 221.662 249.464C221.782 249.568 221.986 249.62 222.274 249.62H223.09V251H221.974ZM224.535 251V244.844H226.155V251H224.535ZM225.351 244.052C225.063 244.052 224.823 243.968 224.631 243.8C224.447 243.624 224.355 243.404 224.355 243.14C224.355 242.876 224.447 242.66 224.631 242.492C224.823 242.316 225.063 242.228 225.351 242.228C225.647 242.228 225.887 242.316 226.071 242.492C226.263 242.66 226.359 242.876 226.359 243.14C226.359 243.404 226.263 243.624 226.071 243.8C225.887 243.968 225.647 244.052 225.351 244.052ZM227.816 251V244.844H229.244L229.376 245.648C229.568 245.36 229.82 245.132 230.132 244.964C230.452 244.788 230.812 244.7 231.212 244.7C231.516 244.7 231.784 244.74 232.016 244.82C232.256 244.9 232.468 245.016 232.652 245.168C232.836 245.32 232.988 245.508 233.108 245.732C233.332 245.412 233.62 245.16 233.972 244.976C234.332 244.792 234.72 244.7 235.136 244.7C235.664 244.7 236.1 244.804 236.444 245.012C236.796 245.22 237.056 245.52 237.224 245.912C237.4 246.304 237.488 246.78 237.488 247.34V251H235.88V247.484C235.88 247.028 235.784 246.68 235.592 246.44C235.408 246.192 235.128 246.068 234.752 246.068C234.496 246.068 234.272 246.128 234.08 246.248C233.888 246.368 233.736 246.544 233.624 246.776C233.52 247.008 233.468 247.284 233.468 247.604V251H231.848V247.484C231.848 247.028 231.752 246.68 231.56 246.44C231.376 246.192 231.088 246.068 230.696 246.068C230.456 246.068 230.24 246.128 230.048 246.248C229.856 246.368 229.704 246.544 229.592 246.776C229.488 247.008 229.436 247.284 229.436 247.604V251H227.816ZM239.113 251V244.844H240.733V251H239.113ZM239.929 244.052C239.641 244.052 239.401 243.968 239.209 243.8C239.025 243.624 238.933 243.404 238.933 243.14C238.933 242.876 239.025 242.66 239.209 242.492C239.401 242.316 239.641 242.228 239.929 242.228C240.225 242.228 240.465 242.316 240.649 242.492C240.841 242.66 240.937 242.876 240.937 243.14C240.937 243.404 240.841 243.624 240.649 243.8C240.465 243.968 240.225 244.052 239.929 244.052ZM241.998 251V249.704L245.094 246.188H242.046V244.844H246.978V246.152L243.858 249.656H247.038V251H241.998ZM251.262 251.144C250.654 251.144 250.118 251.012 249.654 250.748C249.198 250.484 248.838 250.116 248.574 249.644C248.318 249.164 248.19 248.608 248.19 247.976C248.19 247.336 248.318 246.772 248.574 246.284C248.83 245.788 249.186 245.4 249.642 245.12C250.106 244.84 250.646 244.7 251.262 244.7C251.87 244.7 252.398 244.836 252.846 245.108C253.294 245.372 253.638 245.732 253.878 246.188C254.118 246.644 254.238 247.164 254.238 247.748C254.238 247.828 254.238 247.916 254.238 248.012C254.238 248.108 254.23 248.212 254.214 248.324H249.342V247.328H252.606C252.59 246.92 252.454 246.6 252.198 246.368C251.95 246.136 251.642 246.02 251.274 246.02C250.994 246.02 250.742 246.088 250.518 246.224C250.294 246.352 250.114 246.548 249.978 246.812C249.85 247.068 249.786 247.396 249.786 247.796V248.144C249.786 248.488 249.846 248.788 249.966 249.044C250.086 249.292 250.254 249.484 250.47 249.62C250.694 249.756 250.954 249.824 251.25 249.824C251.562 249.824 251.81 249.764 251.994 249.644C252.178 249.524 252.322 249.364 252.426 249.164H254.07C253.958 249.54 253.77 249.876 253.506 250.172C253.25 250.468 252.93 250.704 252.546 250.88C252.162 251.056 251.734 251.144 251.262 251.144ZM260.897 251.144C260.313 251.144 259.817 251.056 259.409 250.88C259.009 250.696 258.701 250.448 258.485 250.136C258.269 249.824 258.145 249.472 258.113 249.08H259.721C259.753 249.232 259.813 249.372 259.901 249.5C259.997 249.62 260.125 249.72 260.285 249.8C260.445 249.872 260.641 249.908 260.873 249.908C261.089 249.908 261.269 249.88 261.413 249.824C261.557 249.76 261.665 249.676 261.737 249.572C261.809 249.468 261.845 249.352 261.845 249.224C261.845 249.048 261.793 248.912 261.689 248.816C261.593 248.712 261.453 248.632 261.269 248.576C261.085 248.512 260.857 248.46 260.585 248.42C260.265 248.364 259.965 248.292 259.685 248.204C259.405 248.116 259.157 248.004 258.941 247.868C258.733 247.732 258.569 247.56 258.449 247.352C258.329 247.144 258.269 246.892 258.269 246.596C258.269 246.236 258.365 245.912 258.557 245.624C258.757 245.336 259.041 245.112 259.409 244.952C259.785 244.784 260.233 244.7 260.753 244.7C261.497 244.7 262.081 244.864 262.505 245.192C262.929 245.52 263.181 245.968 263.261 246.536H261.737C261.689 246.352 261.581 246.208 261.413 246.104C261.245 246 261.021 245.948 260.741 245.948C260.445 245.948 260.221 246.004 260.069 246.116C259.917 246.22 259.841 246.356 259.841 246.524C259.841 246.644 259.881 246.752 259.961 246.848C260.049 246.936 260.185 247.016 260.369 247.088C260.553 247.152 260.789 247.212 261.077 247.268C261.589 247.356 262.021 247.464 262.373 247.592C262.725 247.712 262.993 247.892 263.177 248.132C263.369 248.364 263.465 248.696 263.465 249.128C263.465 249.536 263.357 249.892 263.141 250.196C262.933 250.492 262.637 250.724 262.253 250.892C261.877 251.06 261.425 251.144 260.897 251.144ZM267.431 251C267.007 251 266.635 250.936 266.315 250.808C266.003 250.672 265.759 250.452 265.583 250.148C265.407 249.836 265.319 249.412 265.319 248.876V246.2H264.263V244.844H265.319L265.499 243.152H266.939V244.844H268.547V246.2H266.939V248.9C266.939 249.172 266.999 249.36 267.119 249.464C267.239 249.568 267.443 249.62 267.731 249.62H268.547V251H267.431ZM271.984 251.144C271.496 251.144 271.088 251.06 270.76 250.892C270.432 250.724 270.188 250.5 270.028 250.22C269.868 249.932 269.788 249.62 269.788 249.284C269.788 248.908 269.884 248.58 270.076 248.3C270.268 248.02 270.552 247.8 270.928 247.64C271.312 247.48 271.788 247.4 272.356 247.4H273.832C273.832 247.088 273.796 246.832 273.724 246.632C273.66 246.424 273.544 246.272 273.376 246.176C273.208 246.072 272.98 246.02 272.692 246.02C272.396 246.02 272.148 246.084 271.948 246.212C271.748 246.34 271.62 246.532 271.564 246.788H269.992C270.04 246.364 270.18 245.996 270.412 245.684C270.652 245.372 270.968 245.132 271.36 244.964C271.752 244.788 272.2 244.7 272.704 244.7C273.272 244.7 273.764 244.796 274.18 244.988C274.596 245.18 274.912 245.456 275.128 245.816C275.344 246.176 275.452 246.62 275.452 247.148V251H274.096L273.916 250.076C273.828 250.228 273.72 250.372 273.592 250.508C273.472 250.636 273.332 250.748 273.172 250.844C273.02 250.94 272.844 251.012 272.644 251.06C272.444 251.116 272.224 251.144 271.984 251.144ZM272.368 249.896C272.568 249.896 272.748 249.86 272.908 249.788C273.076 249.708 273.22 249.6 273.34 249.464C273.46 249.328 273.556 249.172 273.628 248.996C273.7 248.812 273.748 248.62 273.772 248.42V248.384H272.548C272.308 248.384 272.108 248.416 271.948 248.48C271.796 248.544 271.684 248.636 271.612 248.756C271.54 248.868 271.504 248.996 271.504 249.14C271.504 249.3 271.54 249.436 271.612 249.548C271.684 249.66 271.784 249.748 271.912 249.812C272.048 249.868 272.2 249.896 272.368 249.896ZM277.334 251V244.412C277.334 243.908 277.418 243.508 277.586 243.212C277.754 242.916 277.994 242.7 278.306 242.564C278.618 242.428 278.986 242.36 279.41 242.36H280.262V243.74H279.662C279.406 243.74 279.222 243.792 279.11 243.896C279.006 243.992 278.954 244.164 278.954 244.412V251H277.334ZM276.482 246.2V244.844H280.322V246.2H276.482ZM281.893 251V244.412C281.893 243.908 281.977 243.508 282.145 243.212C282.313 242.916 282.553 242.7 282.865 242.564C283.177 242.428 283.545 242.36 283.969 242.36H284.821V243.74H284.221C283.965 243.74 283.781 243.792 283.669 243.896C283.565 243.992 283.513 244.164 283.513 244.412V251H281.893ZM281.041 246.2V244.844H284.881V246.2H281.041ZM204.764 266.144C204.18 266.144 203.684 266.056 203.276 265.88C202.876 265.696 202.568 265.448 202.352 265.136C202.136 264.824 202.012 264.472 201.98 264.08H203.588C203.62 264.232 203.68 264.372 203.768 264.5C203.864 264.62 203.992 264.72 204.152 264.8C204.312 264.872 204.508 264.908 204.74 264.908C204.956 264.908 205.136 264.88 205.28 264.824C205.424 264.76 205.532 264.676 205.604 264.572C205.676 264.468 205.712 264.352 205.712 264.224C205.712 264.048 205.66 263.912 205.556 263.816C205.46 263.712 205.32 263.632 205.136 263.576C204.952 263.512 204.724 263.46 204.452 263.42C204.132 263.364 203.832 263.292 203.552 263.204C203.272 263.116 203.024 263.004 202.808 262.868C202.6 262.732 202.436 262.56 202.316 262.352C202.196 262.144 202.136 261.892 202.136 261.596C202.136 261.236 202.232 260.912 202.424 260.624C202.624 260.336 202.908 260.112 203.276 259.952C203.652 259.784 204.1 259.7 204.62 259.7C205.364 259.7 205.948 259.864 206.372 260.192C206.796 260.52 207.048 260.968 207.128 261.536H205.604C205.556 261.352 205.448 261.208 205.28 261.104C205.112 261 204.888 260.948 204.608 260.948C204.312 260.948 204.088 261.004 203.936 261.116C203.784 261.22 203.708 261.356 203.708 261.524C203.708 261.644 203.748 261.752 203.828 261.848C203.916 261.936 204.052 262.016 204.236 262.088C204.42 262.152 204.656 262.212 204.944 262.268C205.456 262.356 205.888 262.464 206.24 262.592C206.592 262.712 206.86 262.892 207.044 263.132C207.236 263.364 207.332 263.696 207.332 264.128C207.332 264.536 207.224 264.892 207.008 265.196C206.8 265.492 206.504 265.724 206.12 265.892C205.744 266.06 205.292 266.144 204.764 266.144ZM211.642 266.144C211.034 266.144 210.494 266.008 210.022 265.736C209.558 265.464 209.194 265.088 208.93 264.608C208.666 264.128 208.534 263.58 208.534 262.964C208.534 262.324 208.666 261.76 208.93 261.272C209.194 260.784 209.558 260.4 210.022 260.12C210.494 259.84 211.038 259.7 211.654 259.7C212.43 259.7 213.082 259.908 213.61 260.324C214.138 260.732 214.474 261.296 214.618 262.016H212.902C212.83 261.728 212.678 261.504 212.446 261.344C212.222 261.176 211.95 261.092 211.63 261.092C211.342 261.092 211.086 261.164 210.862 261.308C210.646 261.452 210.478 261.664 210.358 261.944C210.246 262.216 210.19 262.544 210.19 262.928C210.19 263.208 210.222 263.464 210.286 263.696C210.358 263.92 210.454 264.112 210.574 264.272C210.702 264.432 210.854 264.556 211.03 264.644C211.214 264.724 211.414 264.764 211.63 264.764C211.846 264.764 212.038 264.728 212.206 264.656C212.382 264.584 212.53 264.48 212.65 264.344C212.77 264.2 212.854 264.028 212.902 263.828H214.618C214.474 264.532 214.134 265.096 213.598 265.52C213.07 265.936 212.418 266.144 211.642 266.144ZM216.038 266V257.36H217.658V260.744C217.858 260.432 218.126 260.18 218.462 259.988C218.798 259.796 219.182 259.7 219.614 259.7C220.118 259.7 220.542 259.804 220.886 260.012C221.238 260.22 221.498 260.524 221.666 260.924C221.842 261.316 221.93 261.8 221.93 262.376V266H220.322V262.52C220.322 262.056 220.218 261.7 220.01 261.452C219.802 261.196 219.486 261.068 219.062 261.068C218.806 261.068 218.57 261.132 218.354 261.26C218.138 261.38 217.966 261.56 217.838 261.8C217.718 262.032 217.658 262.312 217.658 262.64V266H216.038ZM226.395 266.144C225.787 266.144 225.251 266.012 224.787 265.748C224.331 265.484 223.971 265.116 223.707 264.644C223.451 264.164 223.323 263.608 223.323 262.976C223.323 262.336 223.451 261.772 223.707 261.284C223.963 260.788 224.319 260.4 224.775 260.12C225.239 259.84 225.779 259.7 226.395 259.7C227.003 259.7 227.531 259.836 227.979 260.108C228.427 260.372 228.771 260.732 229.011 261.188C229.251 261.644 229.371 262.164 229.371 262.748C229.371 262.828 229.371 262.916 229.371 263.012C229.371 263.108 229.363 263.212 229.347 263.324H224.475V262.328H227.739C227.723 261.92 227.587 261.6 227.331 261.368C227.083 261.136 226.775 261.02 226.407 261.02C226.127 261.02 225.875 261.088 225.651 261.224C225.427 261.352 225.247 261.548 225.111 261.812C224.983 262.068 224.919 262.396 224.919 262.796V263.144C224.919 263.488 224.979 263.788 225.099 264.044C225.219 264.292 225.387 264.484 225.603 264.62C225.827 264.756 226.087 264.824 226.383 264.824C226.695 264.824 226.943 264.764 227.127 264.644C227.311 264.524 227.455 264.364 227.559 264.164H229.203C229.091 264.54 228.903 264.876 228.639 265.172C228.383 265.468 228.063 265.704 227.679 265.88C227.295 266.056 226.867 266.144 226.395 266.144ZM233.362 266.144C232.81 266.144 232.318 266.008 231.886 265.736C231.462 265.456 231.13 265.076 230.89 264.596C230.65 264.116 230.53 263.568 230.53 262.952C230.53 262.32 230.654 261.76 230.902 261.272C231.15 260.784 231.494 260.4 231.934 260.12C232.374 259.84 232.874 259.7 233.434 259.7C233.858 259.7 234.23 259.78 234.55 259.94C234.878 260.1 235.138 260.324 235.33 260.612V257.36H236.95V266H235.51L235.33 265.16C235.21 265.336 235.062 265.5 234.886 265.652C234.71 265.804 234.498 265.924 234.25 266.012C234.002 266.1 233.706 266.144 233.362 266.144ZM233.77 264.728C234.09 264.728 234.37 264.656 234.61 264.512C234.85 264.36 235.038 264.148 235.174 263.876C235.31 263.604 235.378 263.288 235.378 262.928C235.378 262.56 235.31 262.24 235.174 261.968C235.038 261.696 234.85 261.488 234.61 261.344C234.37 261.192 234.09 261.116 233.77 261.116C233.466 261.116 233.19 261.192 232.942 261.344C232.702 261.488 232.514 261.696 232.378 261.968C232.242 262.24 232.174 262.556 232.174 262.916C232.174 263.276 232.242 263.596 232.378 263.876C232.514 264.148 232.702 264.36 232.942 264.512C233.19 264.656 233.466 264.728 233.77 264.728ZM240.854 266.144C240.366 266.144 239.946 266.048 239.594 265.856C239.25 265.656 238.986 265.364 238.802 264.98C238.626 264.596 238.538 264.124 238.538 263.564V259.844H240.146V263.372C240.146 263.844 240.25 264.196 240.458 264.428C240.674 264.66 240.986 264.776 241.394 264.776C241.658 264.776 241.89 264.72 242.09 264.608C242.298 264.496 242.462 264.328 242.582 264.104C242.71 263.872 242.774 263.592 242.774 263.264V259.844H244.394V266H242.966L242.846 265.04C242.67 265.376 242.414 265.644 242.078 265.844C241.742 266.044 241.334 266.144 240.854 266.144ZM246.003 266V257.36H247.623V266H246.003ZM252.106 266.144C251.498 266.144 250.962 266.012 250.498 265.748C250.042 265.484 249.682 265.116 249.418 264.644C249.162 264.164 249.034 263.608 249.034 262.976C249.034 262.336 249.162 261.772 249.418 261.284C249.674 260.788 250.03 260.4 250.486 260.12C250.95 259.84 251.49 259.7 252.106 259.7C252.714 259.7 253.242 259.836 253.69 260.108C254.138 260.372 254.482 260.732 254.722 261.188C254.962 261.644 255.082 262.164 255.082 262.748C255.082 262.828 255.082 262.916 255.082 263.012C255.082 263.108 255.074 263.212 255.058 263.324H250.186V262.328H253.45C253.434 261.92 253.298 261.6 253.042 261.368C252.794 261.136 252.486 261.02 252.118 261.02C251.838 261.02 251.586 261.088 251.362 261.224C251.138 261.352 250.958 261.548 250.822 261.812C250.694 262.068 250.63 262.396 250.63 262.796V263.144C250.63 263.488 250.69 263.788 250.81 264.044C250.93 264.292 251.098 264.484 251.314 264.62C251.538 264.756 251.798 264.824 252.094 264.824C252.406 264.824 252.654 264.764 252.838 264.644C253.022 264.524 253.166 264.364 253.27 264.164H254.914C254.802 264.54 254.614 264.876 254.35 265.172C254.094 265.468 253.774 265.704 253.39 265.88C253.006 266.056 252.578 266.144 252.106 266.144Z" fill="#0F172A"/>
<mask id="path-17-inside-1_22_962" fill="white">
<path d="M19 306H346V386H19V306Z"/>
</mask>
<path d="M19 306V307H346V306V305H19V306Z" fill="#F1F5F9" mask="url(#path-17-inside-1_22_962)"/>
<path d="M21.12 326L19.28 319H20.73L21.94 324.47L23.38 319H24.87L26.27 324.47L27.5 319H28.95L27.07 326H25.46L24.11 320.9L22.72 326H21.12ZM30.4546 326V319H35.0646V320.09H31.8046V321.92H34.7646V322.97H31.8046V324.91H35.0646V326H30.4546ZM36.853 326V319H41.463V320.09H38.203V321.92H41.163V322.97H38.203V324.91H41.463V326H36.853ZM43.2515 326V319H44.6015V321.77L47.1315 319H48.8015L46.2215 321.77L48.8715 326H47.2215L45.2615 322.82L44.6015 323.52V326H43.2515ZM50.3726 326V319H51.7226V324.95H54.7926V326H50.3726ZM57.3305 326V323.54L54.9705 319H56.5005L58.0405 322.23H57.9905L59.5205 319H61.0405L58.6805 323.54V326H57.3305ZM65.3198 326V319H69.9298V320.09H66.6698V321.92H69.6298V322.97H66.6698V324.91H69.9298V326H65.3198ZM71.3383 326L73.5483 322.45L71.3083 319H72.8683L74.4083 321.39L75.8083 319H77.3383L75.1483 322.51L77.3983 326H75.8383L74.2783 323.57L72.8683 326H71.3383ZM78.9468 326V319H81.5368C82.1101 319 82.5835 319.1 82.9568 319.3C83.3368 319.493 83.6201 319.757 83.8068 320.09C83.9935 320.423 84.0868 320.803 84.0868 321.23C84.0868 321.623 83.9968 321.99 83.8168 322.33C83.6368 322.663 83.3601 322.933 82.9868 323.14C82.6135 323.347 82.1301 323.45 81.5368 323.45H80.2968V326H78.9468ZM80.2968 322.35H81.4568C81.9101 322.35 82.2301 322.25 82.4168 322.05C82.6101 321.843 82.7068 321.57 82.7068 321.23C82.7068 320.877 82.6101 320.6 82.4168 320.4C82.2301 320.2 81.9101 320.1 81.4568 320.1H80.2968V322.35ZM85.6577 326V319H90.2677V320.09H87.0077V321.92H89.9677V322.97H87.0077V324.91H90.2677V326H85.6577ZM92.0562 326V319H93.4062L96.6262 323.84V319H97.9762V326H96.6262L93.4062 321.17V326H92.0562ZM102.349 326.12C101.842 326.12 101.389 326.033 100.989 325.86C100.596 325.687 100.282 325.433 100.049 325.1C99.8223 324.767 99.7057 324.363 99.699 323.89H101.129C101.136 324.097 101.189 324.283 101.289 324.45C101.389 324.617 101.526 324.75 101.699 324.85C101.879 324.943 102.092 324.99 102.339 324.99C102.552 324.99 102.736 324.957 102.889 324.89C103.049 324.817 103.172 324.717 103.259 324.59C103.346 324.463 103.389 324.313 103.389 324.14C103.389 323.96 103.342 323.803 103.249 323.67C103.162 323.537 103.039 323.423 102.879 323.33C102.719 323.23 102.529 323.14 102.309 323.06C102.096 322.98 101.866 322.9 101.619 322.82C101.032 322.64 100.592 322.397 100.299 322.09C100.006 321.783 99.859 321.383 99.859 320.89C99.859 320.47 99.959 320.11 100.159 319.81C100.359 319.51 100.639 319.28 100.999 319.12C101.359 318.96 101.769 318.88 102.229 318.88C102.702 318.88 103.116 318.963 103.469 319.13C103.829 319.29 104.112 319.523 104.319 319.83C104.532 320.137 104.646 320.497 104.659 320.91H103.209C103.202 320.757 103.156 320.613 103.069 320.48C102.989 320.34 102.876 320.23 102.729 320.15C102.582 320.063 102.409 320.02 102.209 320.02C102.036 320.013 101.876 320.04 101.729 320.1C101.589 320.16 101.479 320.25 101.399 320.37C101.319 320.483 101.279 320.627 101.279 320.8C101.279 320.967 101.319 321.107 101.399 321.22C101.479 321.333 101.592 321.433 101.739 321.52C101.886 321.6 102.059 321.677 102.259 321.75C102.459 321.817 102.676 321.887 102.909 321.96C103.262 322.08 103.582 322.223 103.869 322.39C104.162 322.55 104.396 322.76 104.569 323.02C104.742 323.28 104.829 323.623 104.829 324.05C104.829 324.417 104.732 324.757 104.539 325.07C104.352 325.383 104.076 325.637 103.709 325.83C103.342 326.023 102.889 326.12 102.349 326.12ZM106.562 326V319H111.172V320.09H107.912V321.92H110.872V322.97H107.912V324.91H111.172V326H106.562ZM115.37 326.12C114.864 326.12 114.41 326.033 114.01 325.86C113.617 325.687 113.304 325.433 113.07 325.1C112.844 324.767 112.727 324.363 112.72 323.89H114.15C114.157 324.097 114.21 324.283 114.31 324.45C114.41 324.617 114.547 324.75 114.72 324.85C114.9 324.943 115.114 324.99 115.36 324.99C115.574 324.99 115.757 324.957 115.91 324.89C116.07 324.817 116.194 324.717 116.28 324.59C116.367 324.463 116.41 324.313 116.41 324.14C116.41 323.96 116.364 323.803 116.27 323.67C116.184 323.537 116.06 323.423 115.9 323.33C115.74 323.23 115.55 323.14 115.33 323.06C115.117 322.98 114.887 322.9 114.64 322.82C114.054 322.64 113.614 322.397 113.32 322.09C113.027 321.783 112.88 321.383 112.88 320.89C112.88 320.47 112.98 320.11 113.18 319.81C113.38 319.51 113.66 319.28 114.02 319.12C114.38 318.96 114.79 318.88 115.25 318.88C115.724 318.88 116.137 318.963 116.49 319.13C116.85 319.29 117.134 319.523 117.34 319.83C117.554 320.137 117.667 320.497 117.68 320.91H116.23C116.224 320.757 116.177 320.613 116.09 320.48C116.01 320.34 115.897 320.23 115.75 320.15C115.604 320.063 115.43 320.02 115.23 320.02C115.057 320.013 114.897 320.04 114.75 320.1C114.61 320.16 114.5 320.25 114.42 320.37C114.34 320.483 114.3 320.627 114.3 320.8C114.3 320.967 114.34 321.107 114.42 321.22C114.5 321.333 114.614 321.433 114.76 321.52C114.907 321.6 115.08 321.677 115.28 321.75C115.48 321.817 115.697 321.887 115.93 321.96C116.284 322.08 116.604 322.223 116.89 322.39C117.184 322.55 117.417 322.76 117.59 323.02C117.764 323.28 117.85 323.623 117.85 324.05C117.85 324.417 117.754 324.757 117.56 325.07C117.374 325.383 117.097 325.637 116.73 325.83C116.364 326.023 115.91 326.12 115.37 326.12Z" fill="#475569"/>
<path d="M324.77 323.5V322.37H328.99V323.5H324.77ZM332.942 326.12C332.435 326.12 331.999 326.033 331.632 325.86C331.272 325.687 330.992 325.45 330.792 325.15C330.592 324.843 330.479 324.497 330.452 324.11H331.762C331.809 324.35 331.935 324.553 332.142 324.72C332.349 324.887 332.615 324.97 332.942 324.97C333.182 324.97 333.389 324.913 333.562 324.8C333.742 324.687 333.879 324.53 333.972 324.33C334.072 324.123 334.122 323.893 334.122 323.64C334.122 323.38 334.072 323.157 333.972 322.97C333.872 322.777 333.735 322.63 333.562 322.53C333.395 322.423 333.199 322.37 332.972 322.37C332.705 322.37 332.475 322.43 332.282 322.55C332.089 322.67 331.942 322.807 331.842 322.96H330.522L331.062 319H335.042V320.18H332.062L331.802 321.78C331.949 321.627 332.142 321.507 332.382 321.42C332.629 321.327 332.905 321.28 333.212 321.28C333.585 321.28 333.909 321.343 334.182 321.47C334.455 321.597 334.685 321.77 334.872 321.99C335.059 322.21 335.195 322.463 335.282 322.75C335.375 323.03 335.422 323.32 335.422 323.62C335.422 323.987 335.359 324.323 335.232 324.63C335.112 324.93 334.942 325.193 334.722 325.42C334.502 325.64 334.239 325.813 333.932 325.94C333.632 326.06 333.302 326.12 332.942 326.12ZM338.022 326L341.952 319H343.272L339.342 326H338.022ZM343.152 326.12C342.826 326.12 342.529 326.05 342.262 325.91C342.002 325.763 341.796 325.557 341.642 325.29C341.489 325.017 341.412 324.697 341.412 324.33C341.412 323.957 341.489 323.637 341.642 323.37C341.796 323.103 342.002 322.9 342.262 322.76C342.529 322.613 342.826 322.54 343.152 322.54C343.479 322.54 343.772 322.613 344.032 322.76C344.292 322.9 344.499 323.103 344.652 323.37C344.806 323.637 344.882 323.957 344.882 324.33C344.882 324.697 344.806 325.017 344.652 325.29C344.499 325.557 344.292 325.763 344.032 325.91C343.772 326.05 343.479 326.12 343.152 326.12ZM343.142 325.19C343.276 325.19 343.392 325.157 343.492 325.09C343.592 325.023 343.672 324.927 343.732 324.8C343.792 324.673 343.822 324.517 343.822 324.33C343.822 324.137 343.792 323.977 343.732 323.85C343.679 323.717 343.599 323.617 343.492 323.55C343.392 323.483 343.276 323.45 343.142 323.45C343.016 323.45 342.899 323.483 342.792 323.55C342.692 323.617 342.612 323.717 342.552 323.85C342.492 323.977 342.462 324.137 342.462 324.33C342.462 324.517 342.492 324.673 342.552 324.8C342.612 324.927 342.692 325.023 342.792 325.09C342.899 325.157 343.016 325.19 343.142 325.19ZM338.192 322.47C337.866 322.47 337.569 322.397 337.302 322.25C337.042 322.103 336.836 321.897 336.682 321.63C336.529 321.363 336.452 321.047 336.452 320.68C336.452 320.3 336.529 319.98 336.682 319.72C336.836 319.453 337.046 319.247 337.312 319.1C337.579 318.953 337.872 318.88 338.192 318.88C338.519 318.88 338.812 318.953 339.072 319.1C339.332 319.247 339.539 319.453 339.692 319.72C339.846 319.98 339.922 320.3 339.922 320.68C339.922 321.047 339.846 321.363 339.692 321.63C339.539 321.897 339.332 322.103 339.072 322.25C338.812 322.397 338.519 322.47 338.192 322.47ZM338.182 321.54C338.316 321.54 338.432 321.507 338.532 321.44C338.639 321.373 338.719 321.277 338.772 321.15C338.832 321.023 338.862 320.867 338.862 320.68C338.862 320.48 338.832 320.317 338.772 320.19C338.719 320.063 338.639 319.967 338.532 319.9C338.432 319.833 338.319 319.8 338.192 319.8C338.066 319.8 337.949 319.833 337.842 319.9C337.736 319.967 337.652 320.067 337.592 320.2C337.532 320.327 337.502 320.487 337.502 320.68C337.502 320.867 337.532 321.023 337.592 321.15C337.652 321.277 337.732 321.373 337.832 321.44C337.939 321.507 338.056 321.54 338.182 321.54Z" fill="#EF4444"/>
<path d="M23 368.81C23 367.705 23.8954 366.81 25 366.81H62.2786C63.3831 366.81 64.2786 367.705 64.2786 368.81V386H23V368.81Z" fill="#FF914D" fill-opacity="0.2"/>
<path d="M69.2786 359.2C69.2786 358.096 70.174 357.2 71.2786 357.2H108.557C109.662 357.2 110.557 358.096 110.557 359.2V386H69.2786V359.2Z" fill="#FF914D" fill-opacity="0.2"/>
<path d="M115.557 371.2C115.557 370.096 116.453 369.2 117.557 369.2H154.836C155.94 369.2 156.836 370.096 156.836 371.2V386H115.557V371.2Z" fill="#FF914D" fill-opacity="0.2"/>
<path d="M161.836 344.81C161.836 343.705 162.731 342.81 163.836 342.81H201.114C202.219 342.81 203.114 343.705 203.114 344.81V386H161.836V344.81Z" fill="#FF914D"/>
<path d="M208.114 361.61C208.114 360.505 209.01 359.61 210.114 359.61H247.393C248.497 359.61 249.393 360.505 249.393 361.61V386H208.114V361.61Z" fill="#FF914D" fill-opacity="0.2"/>
<path d="M254.393 366.41C254.393 365.305 255.288 364.41 256.393 364.41H293.671C294.776 364.41 295.671 365.305 295.671 366.41V386H254.393V366.41Z" fill="#FF914D" fill-opacity="0.2"/>
<path d="M300.671 373.61C300.671 372.505 301.567 371.61 302.671 371.61H339.95C341.055 371.61 341.95 372.505 341.95 373.61V386H300.671V373.61Z" fill="#FF914D" fill-opacity="0.2"/>
</g>
<defs>
<filter id="filter0_d_22_962" x="0" y="0" width="365" height="406" filterUnits="userSpaceOnUse" color-interpolation-filters="sRGB">
<feFlood flood-opacity="0" result="BackgroundImageFix"/>
<feColorMatrix in="SourceAlpha" type="matrix" values="0 0 0 0 0 0 0 0 0 0 0 0 0 0 0 0 0 0 127 0" result="hardAlpha"/>
<feOffset dy="1"/>
<feGaussianBlur stdDeviation="1"/>
<feComposite in2="hardAlpha" operator="out"/>
<feColorMatrix type="matrix" values="0 0 0 0 0 0 0 0 0 0 0 0 0 0 0 0 0 0 0.05 0"/>
<feBlend mode="normal" in2="BackgroundImageFix" result="effect1_dropShadow_22_962"/>
<feBlend mode="normal" in="SourceGraphic" in2="effect1_dropShadow_22_962" result="shape"/>
</filter>
<linearGradient id="paint0_linear_22_962" x1="182.5" y1="94.5333" x2="182.5" y2="173.467" gradientUnits="userSpaceOnUse">
<stop stop-color="#FF914D" stop-opacity="0.2"/>
<stop offset="1" stop-color="#FF914D" stop-opacity="0"/>
</linearGradient>
<clipPath id="clip0_22_962">
<rect width="327" height="80" fill="white" transform="translate(19 94)"/>
</clipPath>
</defs>
</svg>
