<svg width="80" height="80" viewBox="0 0 80 80" fill="none" xmlns="http://www.w3.org/2000/svg">
<rect x="0.5" y="0.5" width="79" height="79" rx="15.5" fill="#00BDD6" fill-opacity="0.1"/>
<rect x="0.5" y="0.5" width="79" height="79" rx="15.5" stroke="#FFEFE4"/>
<path d="M40 60C35.3667 58.8333 31.5417 56.175 28.525 52.025C25.5083 47.875 24 43.2667 24 38.2V26L40 20L56 26V38.2C56 43.2667 54.4917 47.875 51.475 52.025C48.4583 56.175 44.6333 58.8333 40 60ZM36 48H44C44.5667 48 45.0417 47.8083 45.425 47.425C45.8083 47.0417 46 46.5667 46 46V40C46 39.4333 45.8083 38.9583 45.425 38.575C45.0417 38.1917 44.5667 38 44 38V36C44 34.9 43.6083 33.9583 42.825 33.175C42.0417 32.3917 41.1 32 40 32C38.9 32 37.9583 32.3917 37.175 33.175C36.3917 33.9583 36 34.9 36 36V38C35.4333 38 34.9583 38.1917 34.575 38.575C34.1917 38.9583 34 39.4333 34 40V46C34 46.5667 34.1917 47.0417 34.575 47.425C34.9583 47.8083 35.4333 48 36 48ZM38 38V36C38 35.4333 38.1917 34.9583 38.575 34.575C38.9583 34.1917 39.4333 34 40 34C40.5667 34 41.0417 34.1917 41.425 34.575C41.8083 34.9583 42 35.4333 42 36V38H38Z" fill="#FF914D"/>
</svg>
